<svg width="310" height="410" viewBox="0 0 310 410" fill="none" xmlns="http://www.w3.org/2000/svg">
<g opacity="0.1">
<mask id="path-1-outside-1_9_38" maskUnits="userSpaceOnUse" x="-326" y="0" width="636" height="634" fill="black">
<rect fill="white" x="-326" width="636" height="634"/>
<path d="M40.8964 379.917L-7.50037 606.502H-131.242L-82.8453 379.917H-298.981L-273.683 255.075H-56.9971L-8.6003 27.9406H115.141L66.7446 255.075H282.88L257.582 379.917H40.8964Z"/>
</mask>
<path d="M40.8964 379.917V352.917C28.1581 352.917 17.1527 361.82 14.492 374.277L40.8964 379.917ZM-7.50037 606.502V633.502C5.23785 633.502 16.2433 624.599 18.904 612.142L-7.50037 606.502ZM-131.242 606.502L-157.646 600.862C-159.349 608.833 -157.36 617.146 -152.233 623.483C-147.107 629.82 -139.393 633.502 -131.242 633.502V606.502ZM-82.8453 379.917L-56.4409 385.557C-54.7384 377.586 -56.7277 369.273 -61.854 362.936C-66.9802 356.599 -74.6947 352.917 -82.8453 352.917V379.917ZM-298.981 379.917L-325.443 374.555C-327.052 382.494 -325.011 390.737 -319.883 397.008C-314.755 403.28 -307.082 406.917 -298.981 406.917V379.917ZM-273.683 255.075V228.075C-286.527 228.075 -297.594 237.124 -300.145 249.713L-273.683 255.075ZM-56.997 255.075V282.075C-44.2538 282.075 -33.2455 273.166 -30.5898 260.702L-56.997 255.075ZM-8.60031 27.9406V0.940645C-21.3435 0.940645 -32.3518 9.85047 -35.0075 22.3139L-8.60031 27.9406ZM115.141 27.9406L141.549 33.5674C143.247 25.5979 141.255 17.2879 136.129 10.9542C131.002 4.6205 123.29 0.940645 115.141 0.940645V27.9406ZM66.7447 255.075L40.3375 249.449C38.6394 257.418 40.6312 265.728 45.7575 272.062C50.8838 278.396 58.5963 282.075 66.7447 282.075V255.075ZM282.88 255.075L309.342 260.438C310.951 252.498 308.91 244.256 303.782 237.984C298.654 231.713 290.981 228.075 282.88 228.075V255.075ZM257.582 379.917V406.917C270.426 406.917 281.493 397.868 284.044 385.279L257.582 379.917ZM40.8964 379.917L14.492 374.277L-33.9048 600.862L-7.50037 606.502L18.904 612.142L67.3008 385.557L40.8964 379.917ZM-7.50037 606.502V579.502H-131.242V606.502V633.502H-7.50037V606.502ZM-131.242 606.502L-104.838 612.142L-56.4409 385.557L-82.8453 379.917L-109.25 374.277L-157.646 600.862L-131.242 606.502ZM-82.8453 379.917V352.917H-298.981V379.917V406.917H-82.8453V379.917ZM-298.981 379.917L-272.519 385.279L-247.22 260.438L-273.683 255.075L-300.145 249.713L-325.443 374.555L-298.981 379.917ZM-273.683 255.075V282.075H-56.997V255.075V228.075H-273.683V255.075ZM-56.997 255.075L-30.5898 260.702L17.8069 33.5674L-8.60031 27.9406L-35.0075 22.3139L-83.4043 249.449L-56.997 255.075ZM-8.60031 27.9406V54.9406H115.141V27.9406V0.940645H-8.60031V27.9406ZM115.141 27.9406L88.7342 22.3139L40.3375 249.449L66.7447 255.075L93.1519 260.702L141.549 33.5674L115.141 27.9406ZM66.7447 255.075V282.075H282.88V255.075V228.075H66.7447V255.075ZM282.88 255.075L256.418 249.713L231.12 374.555L257.582 379.917L284.044 385.279L309.342 260.438L282.88 255.075ZM257.582 379.917V352.917H40.8964V379.917V406.917H257.582V379.917Z" fill="#3673FF" mask="url(#path-1-outside-1_9_38)"/>
</g>
</svg>
