<svg width="32" height="32" viewBox="0 0 32 32" fill="none" xmlns="http://www.w3.org/2000/svg">
<path d="M32 16C32 24.8365 24.8365 32 16 32C7.16344 32 0 24.8365 0 16C0 7.16344 7.16344 0 16 0C24.8365 0 32 7.16344 32 16ZM18.4592 22.3086C18.9077 22.1229 19.2 21.6853 19.2 21.2V10.8C19.2 10.3146 18.9077 9.87704 18.4592 9.69131C18.0109 9.50557 17.4947 9.60824 17.1515 9.95144L11.9515 15.1514C11.4828 15.62 11.4828 16.3798 11.9515 16.8485L17.1515 22.0485C17.4947 22.3917 18.0109 22.4944 18.4592 22.3086Z" fill="#333333"/>
</svg>
