<svg width="16" height="16" viewBox="0 0 16 16" fill="none" xmlns="http://www.w3.org/2000/svg">
<path d="M2.21359 8.60882C2.03557 8.22283 2.03557 7.77765 2.21359 7.39166C3.22426 5.20037 5.43519 3.68018 8.00001 3.68018C10.5649 3.68018 12.7758 5.20037 13.7865 7.39166C13.9645 7.77765 13.9645 8.22283 13.7865 8.60882C12.7758 10.8001 10.5649 12.3203 8.00001 12.3203C5.43519 12.3203 3.22426 10.8001 2.21359 8.60882Z" stroke="#333333" stroke-width="1.06667" stroke-linecap="round" stroke-linejoin="round"/>
<path d="M10.3202 8.00018C10.3202 9.28146 9.28146 10.3202 8.00018 10.3202C6.71888 10.3202 5.68018 9.28146 5.68018 8.00018C5.68018 6.7189 6.71888 5.68018 8.00018 5.68018C9.28146 5.68018 10.3202 6.7189 10.3202 8.00018Z" stroke="#333333" stroke-width="1.06667" stroke-linecap="round" stroke-linejoin="round"/>
</svg>
