<svg width="402" height="21" viewBox="0 0 402 21" fill="none" xmlns="http://www.w3.org/2000/svg">
<path d="M374.513 9.30273C374.816 10.9517 377.331 13.1872 378.155 13.0678C379.041 13.0099 377.027 11.6026 376.039 8.55517C375.606 7.28609 374.27 8.03453 374.513 9.30273Z" fill="#3D9CFB"/>
<path d="M384.2 9.12793C383.806 10.8974 382.531 11.9629 382.907 12.4729C383.284 12.9186 385.157 11.3464 385.4 9.58028C385.688 7.48758 384.53 7.54779 384.2 9.12793Z" fill="#3D9CFB"/>
<path d="M380.252 12.0715C380.691 12.582 380.808 11.881 381.081 11.2552C381.387 10.5544 382.41 3.54242 381.079 3.46862C379.748 3.39483 379.812 11.5616 380.252 12.0715Z" fill="#3D9CFB"/>
<path d="M295.723 13.478C296.545 13.5497 295.053 10.244 294.299 9.47801C293.545 8.71205 292.776 9.84598 293.086 10.6714C293.395 11.5599 294.9 13.4083 295.723 13.478Z" fill="#3D9CFB"/>
<path d="M291.482 13.4442C292.495 13.3873 290.629 9.25895 288.992 7.78969C287.483 6.44822 286.775 8.02531 287.841 9.23645C289.662 11.404 290.534 13.5002 291.482 13.4442Z" fill="#3D9CFB"/>
<path d="M136.203 8.61523C136.506 10.2642 139.021 12.4997 139.845 12.3803C140.731 12.3224 138.717 10.9151 137.729 7.86767C137.296 6.59859 135.96 7.34703 136.203 8.61523Z" fill="#3D9CFB"/>
<path d="M145.89 8.44049C145.496 10.2099 144.221 11.2754 144.597 11.7855C144.974 12.2312 146.847 10.6589 147.09 8.89284C147.378 6.80014 146.219 6.86035 145.89 8.44049Z" fill="#3D9CFB"/>
<path d="M141.941 11.384C142.381 11.8946 142.498 11.1935 142.771 10.5678C143.077 9.86695 144.099 2.85498 142.769 2.78118C141.438 2.70739 141.502 10.8741 141.941 11.384Z" fill="#3D9CFB"/>
<path d="M400.679 14.6418C396.437 14.7344 355.79 15.0394 349.585 14.9893C343.379 14.9392 289.69 13.3079 289.37 15.8963C289.253 16.847 289.682 16.5319 300.068 16.1724C312.86 15.7056 335.268 16.14 349.573 16.442C363.878 16.744 396.935 16.5116 400.096 16.1536C401.877 15.9555 403.593 14.5393 400.679 14.6418Z" fill="#3D9CFB"/>
<path d="M292.365 15.0037C288.123 15.0962 247.476 15.4012 241.27 15.3511C235.065 15.301 181.376 13.6697 181.056 16.2581C180.939 17.2088 181.367 16.8937 191.753 16.5342C204.545 16.0674 226.953 16.5018 241.259 16.8038C255.564 17.1059 288.621 16.8735 291.782 16.5155C293.563 16.3173 295.278 14.9011 292.365 15.0037Z" fill="#3D9CFB"/>
<path d="M184.358 15.4319C180.116 15.5245 139.469 15.8295 133.263 15.7794C127.058 15.7293 73.369 14.098 73.0491 16.6864C72.9316 17.6371 73.3605 17.322 83.7462 16.9625C96.5385 16.4957 118.946 16.9301 133.252 17.2321C147.557 17.5341 180.614 17.3017 183.775 16.9437C185.556 16.7456 187.271 15.3294 184.358 15.4319Z" fill="#3D9CFB"/>
<path d="M109.356 15.3265C105.114 15.419 64.4671 15.7241 58.2618 15.674C52.0564 15.6239 -1.63258 13.9926 -1.95249 16.581C-2.07001 17.5317 -1.64106 17.2166 8.74463 16.8571C21.5369 16.3903 43.9448 16.8247 58.25 17.1267C72.5552 17.4287 105.613 17.1963 108.773 16.8383C110.554 16.6401 112.27 15.2239 109.356 15.3265Z" fill="#3D9CFB"/>
<path d="M4.39971 14.1627C5.22206 14.2344 3.72964 10.9287 2.97595 10.1627C2.22226 9.39674 1.45323 10.5307 1.76313 11.3561C2.07252 12.2446 3.57735 14.093 4.39971 14.1627Z" fill="#3D9CFB"/>
<path d="M0.158901 14.1289C1.17209 14.072 -0.693947 9.94364 -2.33054 8.47439C-3.83946 7.13291 -4.54837 8.71 -3.48236 9.92114C-1.66094 12.0887 -0.789282 14.1849 0.158901 14.1289Z" fill="#3D9CFB"/>
</svg>
