<svg width="277" height="277" viewBox="0 0 277 277" fill="none" xmlns="http://www.w3.org/2000/svg">
<path d="M217.348 65.1752C270.075 50.9097 283.578 122.334 231.295 130.506C215.256 133.026 203.913 128.913 197.043 121.683C217.057 98.1382 205.672 82.737 194.841 81.3659C200.036 73.3265 208.074 67.5442 217.348 65.1752Z" fill="#3673FF"/>
<path d="M51.1487 180.711C47.3261 179.645 44.8885 187.525 49.5698 188.467C54.2511 189.409 54.5696 181.667 51.1487 180.711Z" fill="#333333"/>
<path d="M182.114 50.4116C168.749 52.5583 169.843 71.1866 183.499 70.6741C196.671 70.134 196.269 48.1263 182.114 50.4116ZM182.557 67.3778C173.278 67.0316 173.915 54.2203 183.195 53.6248C182.661 58.1886 182.448 62.7842 182.557 67.3778Z" fill="#333333"/>
<path d="M64.472 180.13C61.0649 181.086 61.702 189.382 66.3002 188.44C70.8984 187.498 68.3085 179.119 64.472 180.13Z" fill="#333333"/>
<path d="M170.161 79.261C165.923 78.7347 160.466 77.0866 158.901 79.4688C157.17 82.128 158.264 86.2553 160.826 87.4187C166.685 90.064 175.659 79.9535 170.161 79.261Z" fill="#333333"/>
<path d="M256.558 64.1639C244.758 53.6933 227.473 52.4884 209.565 59.3995C208.346 28.9295 182.142 12.448 158.32 23.3895C140.065 22.5308 119.277 29.165 115.468 51.5466C112.698 61.9756 112.033 65.2858 104.388 70.9366C97.629 75.9364 97.3658 85.8807 104.789 89.634C112.615 93.609 109.401 102.792 116.202 107.916C97.3104 109.024 67.8653 116.572 47.6166 131.115C22.7559 114.758 15.5123 117.625 17.3959 154.189C0.00033617 178.87 4.58469 195.074 28.9884 215.24C29.5701 225.835 32.6309 255.696 37.8662 257.011C42.6306 258.216 49.5556 257.704 53.4752 257.441C55.2895 257.316 56.6607 254.421 57.8933 251.624C60.3032 246.084 64.6383 235.641 66.9789 232.732C68.4747 230.876 80.1641 230.932 82.6848 232.732C86.2443 235.336 90.9948 252.787 93.3355 255.959C94.8313 258.022 99.9973 257.898 104.415 257.925C117.365 258.022 117.947 247.676 124.72 237.261C135.952 239.865 155.01 239.034 163.79 235.987C170.812 249.061 174.524 254.532 176.837 256.762C178.222 258.147 192.072 258.576 196.767 256.762C200.922 255.183 199.676 230.128 200.23 221.071C211.31 206.902 213.997 193.371 213.886 184.59C226.531 186.376 238.816 182.789 226.753 170.74C226.295 161.654 227.57 150.616 224.232 139.383C264.092 139.314 285.85 91.2407 256.558 64.1639ZM264.535 108.484L260.851 108.789C261.251 106.814 261.519 104.815 261.655 102.805L266.225 101.753C265.86 104.042 265.295 106.294 264.535 108.484ZM266.613 98.2626L261.779 99.3845C261.777 96.7505 261.573 94.1205 261.17 91.5177L266.364 89.7033C266.722 92.5423 266.782 95.411 266.544 98.2626H266.613ZM265.782 86.3932L260.56 88.2214C259.853 85.0488 258.832 81.9543 257.513 78.9834L262.555 77.2522C263.981 80.157 265.042 83.2274 265.713 86.3932H265.782ZM260.92 74.316L256.045 75.978C254.562 73.1965 252.759 70.5981 250.671 68.2358L254.217 66.4215C256.82 68.6972 259.058 71.3598 260.851 74.316H260.92ZM251.225 64.1916L248.178 65.7428C244.93 62.6656 241.096 60.2729 236.905 58.707C242.035 59.3965 246.937 61.2642 251.225 64.1639V64.1916ZM114.11 97.6394C112.947 93.7475 111.645 89.3294 106.285 86.5593C100.925 83.7893 101.521 77.0583 106.41 73.4573C114.983 67.1278 115.883 62.9451 118.667 52.2806C122.296 30.9516 141.686 25.9656 158.832 26.5473C181.435 16.146 205.604 31.284 206.365 60.6322C204.408 61.4715 202.515 62.4528 200.701 63.5684C198.845 48.0841 191.781 39.594 179.178 37.6966C180.009 36.0207 181.657 30.7023 180.092 29.8713C179.884 29.7876 179.66 29.7509 179.436 29.7639C179.211 29.7768 178.993 29.8391 178.796 29.9463C178.599 30.0535 178.428 30.2029 178.295 30.3839C178.162 30.5649 178.071 30.7729 178.028 30.9932C174.94 45.2171 166.491 49.5937 155.01 51.3804C143.071 53.2501 129.567 55.5354 117.864 84.4542C117.781 84.6559 117.738 84.8721 117.739 85.0904C117.74 85.3086 117.784 85.5245 117.869 85.7255C117.954 85.9265 118.078 86.1086 118.234 86.2613C118.39 86.4139 118.575 86.5341 118.778 86.6148C121.7 87.6951 123.085 76.9198 129.733 69.1915C127.78 76.7813 128.93 83.0415 133.653 87.8335C129.983 95.271 128.279 102.099 128.57 108.248C117.047 107.542 115.662 102.944 114.097 97.6394H114.11ZM194.357 89.3294C195.424 90.7143 196.906 88.8169 201.075 85.4929C202.493 86.5881 203.723 87.9073 204.717 89.3986C200.562 92.9858 200.936 93.7337 201.559 94.4123C202.183 95.091 202.543 95.451 205.922 92.598C208.831 114.412 180.133 144.245 155.425 133.497C152.212 117.14 167.641 106.891 176.2 95.7281C176.879 94.8278 176.712 94.1215 176.491 92.9581C175.881 89.9526 175.923 86.5455 177.654 85.5068C178.456 85.0498 179.38 84.8536 180.298 84.9454C181.217 85.0372 182.083 85.4125 182.779 86.0192C189.122 89.634 191.726 79.7313 198.014 83.6231C194.454 87.4042 193.111 87.792 194.344 89.3848L194.357 89.3294ZM223.442 170.546C217.501 171.931 203 172.028 195.244 170.67C196.878 159.84 199.828 142.68 187.779 131.89C189.653 130.549 191.435 129.082 193.111 127.5C196.7 131.235 200.999 134.215 205.756 136.265C210.513 138.315 215.631 139.394 220.811 139.439C224.37 150.034 223.138 161.46 223.456 170.601L223.442 170.546ZM191.283 176.349C181.685 177.124 163.583 172.665 154.816 168.164C164.621 135.921 131.478 158.011 131.271 118.705C139.581 134.342 167.502 146.308 184.884 133.816C199.205 145.533 191.407 167.942 191.283 176.349ZM191.574 188.371C180.826 187.443 151.561 183.011 154.414 171.668C164.317 176.21 180.729 180.462 191.961 179.604C199.967 188.011 194.981 188.675 191.574 188.385V188.371ZM151.81 132.029C132.42 123.096 126.88 109.509 136.187 90.0772C144.636 96.2959 159.926 97.6394 171.588 96.2405C162.669 106.116 150.176 116.475 151.81 132.029ZM184.33 83.2492C177.627 79.6621 171.325 82.5151 173.416 92.681C152.641 96.0327 120.786 89.6895 135.813 62.4742C150.647 49.4414 167.073 60.7153 177.668 40.8682C189.773 42.2532 196.116 50.217 197.529 65.6597C191.52 70.1159 186.934 76.2219 184.33 83.2354V83.2492ZM197.363 219.492C195.368 222.012 198 248.48 195.008 253.064C192.335 254.948 180.66 254.518 178.818 253.784C173.278 248.881 165.3 231.874 162.198 225.378C161.99 225.02 161.656 224.753 161.262 224.628C160.867 224.503 160.441 224.53 160.065 224.703C159.689 224.876 159.392 225.183 159.23 225.564C159.069 225.945 159.055 226.373 159.192 226.763C159.345 227.081 160.577 229.533 162.281 233.037C155.577 235.114 140.121 236.929 126.354 234.27L127.531 232.067C127.653 231.697 127.64 231.295 127.495 230.933C127.35 230.571 127.083 230.271 126.74 230.087C126.396 229.902 125.999 229.843 125.617 229.922C125.235 230.001 124.893 230.211 124.65 230.516L122.864 233.868C117.324 243.134 115.537 250.585 110.205 253.549C107.102 255.266 96.7426 255.28 95.8146 253.258C90.7732 242.261 87.6847 231.278 84.3468 229.63C80.1918 227.608 69.0287 228.079 65.5524 229.741C63.6549 230.655 61.8683 233.743 59.403 239.339C56.356 246.264 54.4308 252.787 52.478 253.881C51.5916 254.352 42.0351 254.851 38.9881 253.147C37.2845 252.205 33.5589 232.372 32.5201 217.691C34.2514 218.813 41.0933 223.356 45.0959 224.824C47.6028 225.738 50.4143 224.048 47.3396 222.345C13.9888 203.883 0.249636 183.731 19.8751 157.25C20.7943 156.025 21.2813 154.529 21.2601 152.998C20.9554 120.201 22.742 120.118 45.456 134.286C46.0107 134.638 46.6385 134.859 47.2915 134.931C47.9444 135.003 48.6052 134.925 49.2232 134.702C58.0595 131.516 64.8183 132.527 71.9511 134.48C72.6592 134.67 73.4013 134.697 74.1212 134.558C74.841 134.418 75.5198 134.117 76.1061 133.677C97.0196 117.694 99.7203 123.442 98.9032 153.427C98.877 154.236 99.1099 155.032 99.568 155.699C111.548 173.704 113.113 186.016 99.568 202.428C96.2163 206.486 100.108 206.888 102.047 204.631C116.562 187.747 115.994 174.424 103.529 156.156C102.658 154.862 102.226 153.323 102.296 151.765C103.681 117.833 95.3714 114.827 74.3056 130.796C73.9413 131.063 73.5174 131.236 73.0708 131.301C72.6243 131.366 72.1686 131.321 71.7433 131.17C66.5811 129.389 61.044 128.983 55.6773 129.993C82.7956 114.592 114.069 109.55 128.459 111.572C128.279 113.151 128.154 114.661 128.085 116.115C114.083 116.406 101.105 118.179 110.648 128.179C112.504 130.118 122.85 127.528 128.902 129.217C132.503 145.477 140.232 146.835 149.982 151.876C151.135 152.355 152.096 153.205 152.713 154.291C153.33 155.377 153.568 156.637 153.389 157.873C152.669 164.687 148.458 173.634 152.655 179.451C155.148 182.886 165.12 187.886 186.504 191.196C198.554 193.066 201.878 188.966 197.584 182.692C202.501 183.385 206.822 183.939 210.603 184.326C210.156 197.177 205.505 209.526 197.363 219.478V219.492ZM224.952 173.579C231.725 180.504 227.722 181.889 219.412 181.653C211.395 181.427 203.407 180.58 195.521 179.119C194.33 177.582 194.454 176.889 194.787 174.064C202.363 175.31 217.985 175.532 224.952 173.579ZM229.01 135.658C216.157 138.289 200.548 131.766 195.479 125.132C203.124 117.085 208.748 106.559 210.063 96.8914C212.468 98.0206 215.033 98.7726 217.667 99.1213C218.775 105.478 219.578 112.556 220.132 118.11C216.556 117.479 213.302 115.646 210.908 112.916C210.763 112.749 210.583 112.614 210.381 112.522C210.179 112.43 209.96 112.383 209.738 112.383C209.516 112.383 209.297 112.43 209.095 112.522C208.893 112.614 208.713 112.749 208.567 112.916C206.102 116.669 215.299 121.877 220.465 121.572C221.406 126.364 220.977 127.638 222.514 127.431C225.063 127.084 224.661 126.447 223.789 121.517C242.057 117.93 237.749 96.1712 220.506 96.3098C219.301 89.9388 217.861 82.5429 217.168 77.1275C221.42 76.1857 225.755 76.435 228.456 82.8337C229.273 84.7312 231.974 84.0387 231.226 81.6149C229.841 76.8643 224.301 72.557 216.767 73.8312C215.95 69.9809 216.005 68.1389 213.997 68.6098C211.988 69.0807 212.819 70.9781 213.512 74.6207C211.306 75.3014 209.317 76.5464 207.74 78.2323C206.164 79.9181 205.055 81.9865 204.523 84.2326C203.611 83.0233 202.469 82.0063 201.162 81.2401C199.855 80.4738 198.41 79.9733 196.909 79.7673C195.409 79.5614 193.882 79.6541 192.417 80.0401C190.953 80.4261 189.579 81.0978 188.374 82.0166C196.933 60.9092 232.819 51.1172 248.206 70.5903C266.613 90.9913 259.854 132.486 229.01 135.713V135.658ZM209.135 81.7673C210.355 80.0913 212.02 78.7909 213.941 78.0139C214.606 83.083 215.853 89.5509 217.016 95.7142C209.62 95.5341 205.354 87.1826 209.135 81.7673ZM221.129 99.7722C234.979 99.7722 235.852 116.392 223.47 118.234C222.985 112.874 222.182 106.06 221.129 99.7584V99.7722ZM254.716 123.719C257.082 120.183 258.859 116.287 259.979 112.182L263.123 111.919C261.104 116.356 258.25 120.362 254.716 123.719Z" fill="#333333"/>
<path d="M28.8355 149.923C29.1038 149.933 29.3703 149.877 29.6123 149.761C29.8544 149.645 30.0647 149.472 30.2253 149.257C30.3859 149.042 30.4921 148.791 30.5346 148.526C30.5772 148.261 30.555 147.989 30.4698 147.735C28.794 142.763 28.24 134.411 29.5003 133.788C32.6581 132.223 38.669 138.871 39.2923 140.394C38.8629 141.018 34.6387 144.549 36.1345 146.031C37.4087 147.25 43.6827 142.486 43.0595 140.104C42.1038 136.475 32.7274 127.916 27.8245 130.907C22.9216 133.899 26.481 150.491 28.8355 149.923Z" fill="#333333"/>
<path d="M164.732 65.8262C167.294 65.5908 168.624 68.4854 166.74 69.8843C166.495 70.1951 166.369 70.5833 166.385 70.9788C166.4 71.3743 166.557 71.7513 166.825 72.0418C167.094 72.3323 167.458 72.5174 167.851 72.5637C168.244 72.6099 168.641 72.5144 168.97 72.2942C173.333 68.527 169.718 61.9898 164.413 62.5992C164.042 62.7054 163.721 62.9383 163.504 63.2574C163.287 63.5766 163.189 63.9616 163.227 64.3455C163.265 64.7295 163.436 65.0879 163.711 65.3585C163.986 65.629 164.347 65.7946 164.732 65.8262Z" fill="#333333"/>
<path d="M79.4715 156.544C69.6934 156.115 65.5246 163.871 66.9373 171.045C61.4465 168.807 55.3193 168.694 49.7494 170.727C51.8131 162.777 45.9961 154.868 37.2844 155.852C20.8445 157.694 23.8084 182.305 40.4007 179.521C30.0963 203.828 83.1556 206.806 75.6905 180.048C93.9309 184.216 97.3103 157.763 79.4715 156.544ZM38.891 176.35C28.6974 177.056 26.5507 164.453 33.9466 160.173C35.5393 164.91 38.1016 171.461 41.2317 175.906C40.4726 176.15 39.6865 176.299 38.891 176.35ZM58.5303 195.74C37.1459 197.402 38.434 172.195 57.7686 172.527C77.1863 172.61 79.1391 195.352 58.5303 195.74ZM77.9203 177.028C69.0425 176.308 67.2143 164.688 74.1947 160.768C76.6431 166.185 79.524 171.396 82.8094 176.35C81.28 177.029 79.5957 177.282 77.9342 177.084L77.9203 177.028Z" fill="#333333"/>
<path d="M83.4188 190.698C80.9535 190.338 82.3801 193.967 78.2389 198.08C76.5211 199.747 74.3641 200.89 72.0203 201.376C69.9289 201.875 70.8292 205.088 72.9067 204.562C75.7731 203.944 78.4567 202.669 80.7458 200.836C84.2221 197.775 86.078 191.086 83.4188 190.698Z" fill="#333333"/>
<path d="M180.299 48.029C182.529 47.7936 186.518 48.6523 186.878 47.1288C187.64 43.971 181.919 43.7494 179.551 45.1205C178.208 45.8823 178.443 48.2368 180.299 48.029Z" fill="#333333"/>
<path d="M92.546 130.936C87.3522 128.595 80.1918 137.057 79.0284 140.423C77.9896 143.414 85.2332 148.193 86.6043 145.963C87.56 144.412 82.2 142.32 82.3108 141.032C82.477 139.163 88.9173 132.57 91.0225 133.927C92.4075 134.855 91.1887 143.359 90.3438 146.96C89.8868 148.899 92.6152 149.73 93.4739 147.528C95.1498 143.11 95.6899 132.362 92.546 130.936Z" fill="#333333"/>
<path d="M157.654 61.6847C151.879 53.3747 137.295 61.1307 139.04 69.9947C142.35 86.6978 167.585 75.9363 157.654 61.6847ZM149.261 75.3269C139.331 75.3269 140.383 61.6016 150.064 61.56C149.378 66.1149 149.109 70.7231 149.261 75.3269Z" fill="#333333"/>
<path d="M27.0213 180.033C37.1179 184.327 32.9629 192.415 26.9243 192.097C13.102 191.39 17.5202 176.017 27.0213 180.033Z" fill="#3673FF"/>
<path d="M93.4458 178.594C83.3353 182.873 87.4903 190.962 93.5289 190.643C107.351 189.937 102.933 174.563 93.4458 178.594Z" fill="#3673FF"/>
<path d="M226.005 47.7537C226.082 48.7341 226.831 48.433 228.714 48.3558C228.792 49.3363 228.792 51.2122 229.764 51.1428C230.737 51.0733 230.667 50.9112 230.22 48.1319C232.405 47.9003 233.076 47.9003 233.007 47.0743C232.929 46.0938 232.235 46.6265 230.065 46.6265C229.919 44.5189 229.919 43.7624 229.093 44.0635C228.413 44.2873 228.49 44.5884 228.637 46.8504C226.831 47.0743 225.927 46.7732 226.005 47.7537Z" fill="#3673FF"/>
<path d="M265.996 138.181C265.891 136.958 265.483 137.062 261.615 138.285C260.904 134.919 260.998 133.601 259.774 134.103C258.248 134.616 259.064 135.64 259.68 138.996C256.544 139.812 255.906 139.917 256.01 140.837C256.314 142.666 258.102 141.349 260.287 140.837C260.998 142.928 261.207 144.486 262.221 144.402C263.748 144.276 263.037 142.98 262.221 140.126C264.364 139.456 266.1 139.049 265.996 138.181Z" fill="#3673FF"/>
</svg>
