<svg width="402" height="137" viewBox="0 0 402 137" fill="none" xmlns="http://www.w3.org/2000/svg">
<path d="M372.826 43.1233C375.422 45.0856 378.144 46.7951 380.803 50.7835C381.879 52.4293 383.778 51.986 384.158 51.2268C389.098 37.4254 400.681 44.8958 405.683 28.9422C406.949 26.6022 397.643 25.2073 394.731 21.7922C394.224 21.412 393.59 21.3489 393.338 21.9183C391.755 25.4634 388.974 30.2929 384.285 30.5282C376.567 30.9124 369.344 40.4011 372.826 43.1233Z" fill="#3D9CFB"/>
<path d="M353.708 23.4348C359.722 30.2084 353.328 36.7292 364.849 25.0175C364.975 24.8579 365.068 24.6749 365.122 24.4792C365.176 24.2835 365.191 24.0789 365.166 23.8774C364.007 16.0482 354.91 15.458 352.188 8.81107C352.075 8.58778 351.88 8.41686 351.644 8.33421C351.408 8.25155 351.149 8.26358 350.922 8.36777C349.339 9.69702 342.945 10.9632 343.072 14.065C345.855 20.5228 351.175 21.1552 353.708 23.4348Z" fill="#3D9CFB"/>
<path d="M320.978 91.4899C320.978 91.4899 322.054 85.3493 325.726 81.3609C331.297 74.9669 338.007 74.9032 337.184 81.9303C341.552 83.9564 342.376 88.8314 340.856 92.5663C342.484 91.7915 344.032 90.8586 345.478 89.781C347.441 88.2613 344.592 79.2081 344.274 77.7521C343.769 73.3204 348.643 73.3841 345.351 66.6735L345.416 66.6085C351.81 72.9389 345.606 71.6096 348.265 82.2449C353.075 89.0823 364.534 72.3688 360.103 68.318C357.127 64.7723 355.482 61.8603 354.975 60.4043C351.303 63.443 349.657 62.6832 346.935 60.0877C343.96 68.0645 320.536 68.1276 316.168 66.7346C315.598 71.7396 309.078 74.0146 305.469 70.7867C295.781 83.3863 315.977 90.6039 320.978 91.4899Z" fill="#3D9CFB"/>
<path d="M407.898 78.8286C407.392 73.6377 403.34 72.3708 403.277 68.9525C403.024 68.4461 407.202 58.0006 402.897 58.0006C400.557 60.8489 393.464 60.0897 393.464 61.926C393.338 68.5092 390.842 73.8125 396.693 78.0687C397.789 78.8656 396.376 82.0571 398.465 81.7406C400.492 81.1705 404.163 80.1578 406.759 80.0948C406.919 80.092 407.076 80.0563 407.221 79.9901C407.367 79.9238 407.497 79.8283 407.604 79.7095C407.711 79.5907 407.792 79.4512 407.843 79.2997C407.893 79.1481 407.912 78.9877 407.898 78.8286Z" fill="#3D9CFB"/>
<path d="M402.011 70.5979C400.365 68.6356 399.985 67.37 400.808 64.9007C401.821 61.6721 403.278 55.8475 400.175 55.0246C399.925 54.9654 399.663 54.9754 399.417 55.0535C399.172 55.1315 398.953 55.2748 398.782 55.4679C397.136 57.557 392.515 58.3799 390.046 58.4436C389.838 58.4437 389.638 58.5219 389.486 58.6625C389.333 58.8032 389.24 58.996 389.223 59.2028C388.464 64.5211 386.248 72.2444 391.628 75.8525C394.414 77.6888 393.021 80.5975 394.92 80.3473C398.338 79.9046 401.947 79.3976 403.783 79.0817C404.159 79.0245 404.502 78.8322 404.746 78.541C404.991 78.2497 405.121 77.8793 405.113 77.499C405.081 75.6621 404.543 73.7004 402.011 70.5979ZM403.277 77.8779C398.845 78.511 396.503 78.8276 395.49 78.9543C395.35 78.9613 395.212 78.9216 395.098 78.8413C394.983 78.761 394.899 78.6448 394.858 78.511C394.479 77.0064 393.581 75.6838 392.323 74.7761C387.955 72.117 389.727 64.4567 390.487 59.962C390.552 59.6454 390.613 59.6454 390.993 59.5824C394.475 59.2658 397.727 58.2668 399.666 56.7334C399.719 56.6842 399.781 56.6467 399.849 56.6231C399.917 56.5995 399.989 56.5905 400.061 56.5966C400.132 56.6028 400.202 56.6239 400.265 56.6587C400.328 56.6934 400.383 56.741 400.426 56.7984C402.578 60.6601 396.564 66.2312 400.996 71.4884C402.008 72.6916 403.781 74.9705 403.781 77.3761C403.771 77.5064 403.715 77.6288 403.622 77.7211C403.53 77.8134 403.407 77.8692 403.277 77.8786V77.8779Z" fill="#001434"/>
<path d="M319.016 44.0731C319.965 44.1381 321.105 41.984 324.27 41.4777C324.486 41.44 324.68 41.32 324.809 41.143C324.939 40.966 324.995 40.7456 324.966 40.528C324.08 37.9326 315.787 43.7566 319.016 44.0731Z" fill="#001434"/>
<path d="M355.86 16.9138C357.569 16.6603 358.645 15.3948 358.2 15.0782C357.883 14.8878 355.414 16.9138 354.338 15.3311C353.388 13.8751 355.794 12.8611 357.567 12.9911C358.832 13.0561 358.453 12.4217 358.073 12.2949C354.781 11.2822 352.223 13.7984 352.945 15.6502C353.216 16.3399 354.277 17.1673 355.86 16.9138Z" fill="#001434"/>
<path d="M352.125 18.3699C358.455 21.1551 356.746 28.1849 359.215 28.246C360.481 28.246 364.66 23.436 365.483 22.1685C367.002 19.8285 364.849 14.4452 361.621 12.0395C358.582 9.75999 355.543 9.00079 353.644 5.32894C352.631 3.36594 351.809 4.44234 349.149 5.70854C343.705 8.36769 342.882 7.48109 344.022 10.3931C345.92 15.2681 349.339 17.1674 352.125 18.3699ZM345.478 8.87404C347.575 8.03584 349.607 7.04114 351.555 5.89834C351.629 5.85462 351.712 5.82645 351.797 5.81556C351.883 5.80467 351.97 5.81128 352.052 5.835C352.135 5.85871 352.212 5.89902 352.279 5.95349C352.346 6.00796 352.401 6.07544 352.441 6.15184C353.161 7.40504 354.024 9.31734 358.709 11.5962C361.811 13.179 363.773 15.6477 364.786 19.6361C364.845 19.9177 364.847 20.2082 364.793 20.4906C364.738 20.7731 364.629 21.042 364.47 21.2819C363.09 23.1491 361.52 24.8676 359.785 26.4097C359.532 26.6632 359.222 26.5352 359.152 26.1569C358.522 22.7886 356.747 18.8119 352.694 17.1043C351.049 16.4075 346.554 14.4452 345.288 9.88934C345.161 9.44344 345.034 9.06384 345.478 8.87404Z" fill="#001434"/>
<path d="M336.17 38.945C336.93 39.0711 338.51 37.4253 341.045 37.489C341.488 37.5001 341.931 37.1725 341.678 36.7292C341.171 35.6528 338.038 35.7379 336.233 37.1725C335.074 38.0955 335.412 38.8183 336.17 38.945Z" fill="#001434"/>
<path d="M331.233 47.4282C332.5 47.4282 333.07 47.7448 332.816 49.0103C332.563 50.467 334.172 50.6009 334.462 49.5173C335.437 45.8682 332.5 45.3391 330.98 45.8455C330.778 45.8866 330.599 46.0045 330.481 46.1746C330.363 46.3447 330.315 46.5538 330.348 46.7581C330.38 46.9625 330.491 47.1464 330.656 47.2712C330.821 47.3961 331.028 47.4524 331.233 47.4282Z" fill="#001434"/>
<path d="M400.175 34.8936C401.694 33.2472 403.404 29.3855 403.974 25.9035C404.416 23.308 403.594 23.3685 400.618 22.2953C398.592 21.5355 396.25 19.8903 393.021 17.2305C392.198 16.5344 391.312 16.7242 390.932 17.7369C385.867 32.3619 374.915 23.1813 370.421 37.0458C369.725 39.2616 371.814 39.6412 372.956 40.5909C375.426 42.2373 378.021 44.1997 380.106 47.555C380.236 47.8401 380.446 48.0817 380.709 48.2511C380.973 48.4205 381.28 48.5106 381.594 48.5106C381.907 48.5106 382.214 48.4205 382.478 48.2511C382.742 48.0817 382.951 47.8401 383.081 47.555C386.74 39.4313 395.214 40.4856 400.175 34.8936ZM387.134 40.715C384.932 42.1703 383.179 44.2087 382.069 46.6027C381.689 47.3619 381.12 46.2225 380.613 45.5263C378.637 43.1243 376.31 41.0329 373.712 39.3221C372.067 38.2457 371.624 38.1189 371.814 37.4865C374.029 30.7759 378.334 29.953 382.132 28.6231C385.741 27.3569 389.286 26.0913 391.947 19.0642C392.138 18.5572 392.332 18.4889 392.644 18.7476C395.275 20.9212 398.405 23.1156 401.824 24.3188C402.267 24.4449 402.646 24.6984 402.52 25.3315C400.726 37.6964 393.058 37.0152 387.134 40.715Z" fill="#001434"/>
<path d="M329.081 52.0499C330.411 48.4411 328.638 45.0227 326.232 43.9463C323.892 42.8699 318.256 44.896 316.293 47.7449C314.521 50.4041 316.228 55.7848 319.964 55.595C323.32 55.1517 328.258 54.139 329.081 52.0499ZM321.61 53.6957C317.812 54.8988 316.735 51.2257 317.749 48.5678C318.191 47.7449 320.154 46.7322 322.054 46.0328C321.864 48.1902 321.61 50.9735 321.61 53.6957Z" fill="#001434"/>
<path d="M361.178 50.8468C359.342 49.0105 357.19 49.264 355.923 50.3404C354.151 51.7964 353.834 53.2524 353.453 57.1778C351.681 58.507 351.113 59.0771 350.541 59.0771C350.035 59.0771 349.718 58.5701 348.515 57.6841C350.161 52.1767 348.895 44.5795 346.11 39.0083C348.199 35.0199 345.98 28.8794 341.17 28.4991C338.635 21.3491 331.738 21.3491 326.103 24.0044C319.962 19.3829 308.187 23.6878 306.985 31.2844C294.895 31.6009 292.295 45.7183 296.729 52.6187C294.513 59.0127 295.843 66.736 302.11 68.0022C298.628 74.2065 297.995 80.2222 302.426 85.5386C292.487 85.9819 289.638 86.5513 288.436 87.8786C286.096 90.3486 296.413 118.583 301.034 119.599C304.263 120.295 305.022 115.294 305.655 112.319C305.655 111.812 324.584 111.685 324.774 111.496C325.787 114.155 327.559 123.781 328.636 124.284C329.353 124.796 330.227 125.042 331.106 124.98C340.286 124.284 363.899 118.269 363.456 113.078C363.326 111.559 361.051 110.103 355.669 108.837C354.72 100.734 353.516 94.7822 349.148 87.8188C349.528 86.9328 349.465 85.6029 349.275 83.8304C354.15 86.4895 360.659 79.4936 368.141 73.8912C373.158 70.1336 380.787 64.1672 374.914 54.2658C371.49 48.4899 366.376 47.2074 361.178 50.8468ZM346.997 47.0482C348.58 54.5186 346.491 61.1662 341.87 63.6979C334.906 67.4965 317.433 67.8761 312.052 64.331C302.049 57.6841 317.243 55.5313 314.014 48.0602C315.66 46.3507 316.167 43.882 315.597 40.8452C318.256 40.2128 321.105 38.3752 322.244 35.8448C325.853 38.5052 331.426 37.4256 333.701 34.134C334.131 34.6079 334.656 34.9854 335.242 35.2418C335.829 35.4982 336.462 35.6275 337.102 35.6214C337.742 35.6152 338.373 35.4737 338.955 35.2062C339.536 34.9386 340.054 34.5511 340.475 34.069C341.746 35.3558 342.871 36.7781 343.832 38.3102C340.034 38.3102 336.552 39.5764 335.412 41.9184C334.336 44.0081 334.969 47.6163 337.438 49.4525C339.97 51.2901 344.212 48.6309 346.997 47.0482ZM340.856 40.528C340.667 42.7432 340.477 45.403 340.477 47.9348C336.932 49.201 336.045 44.7693 337.122 42.5534C337.438 41.7305 339.148 40.9707 340.856 40.528ZM299.074 64.2043C296.795 60.9127 296.478 54.3893 300.593 49.1373C300.65 49.0763 300.685 48.9985 300.694 48.9157C300.702 48.8329 300.684 48.7495 300.641 48.6782C300.598 48.6069 300.533 48.5514 300.456 48.5201C300.379 48.4889 300.294 48.4835 300.213 48.5048C298.948 48.8207 298.124 50.0239 297.554 50.7837C294.769 44.326 297.111 31.9181 308.507 33.0576C309.583 33.1876 310.216 32.2347 308.76 31.4118C309.9 25.3973 319.459 21.7268 324.65 25.0808C323.954 26.347 324.523 27.3597 325.473 26.5368C330.031 22.8019 338.496 22.8929 339.78 29.5125C339.825 29.6959 339.931 29.8585 340.08 29.9736C340.23 30.0887 340.414 30.1494 340.603 30.1456C343.008 30.0156 344.909 32.2347 345.161 34.5766C343.579 30.7787 339.527 32.678 338.007 29.7016C335.349 24.5738 329.145 25.7132 325.663 27.5488C325.299 27.7471 324.888 27.8403 324.475 27.818C324.061 27.7958 323.663 27.6589 323.323 27.4227C317.939 23.6852 311.991 27.9297 310.975 32.9945C310.89 33.4199 310.661 33.803 310.327 34.0796C309.993 34.3561 309.573 34.5094 309.14 34.5136C302.429 34.3238 297.998 41.0344 301.606 47.5552C301.921 48.1451 302.053 48.8154 301.985 49.4806C301.917 50.1457 301.653 50.7757 301.226 51.2901C297.048 56.481 300.213 64.838 305.341 64.7113C305.452 64.7105 305.562 64.734 305.663 64.7801C305.764 64.8262 305.854 64.8937 305.926 64.978C305.999 65.0624 306.052 65.1615 306.082 65.2684C306.112 65.3753 306.119 65.4876 306.101 65.5972C305.911 68.1933 307.114 70.0289 309.329 70.7888C310.216 71.1053 310.659 71.4212 310.343 71.4849C306.988 72.1811 305.151 69.7124 304.455 67.4335C304.371 67.1564 304.205 66.9112 303.979 66.7303C303.753 66.5495 303.478 66.4416 303.189 66.4208C301.353 66.294 300.15 65.7877 299.074 64.2043ZM301.796 117.764C300.846 118.208 300.783 117.511 299.644 115.929C301.1 115.675 302.619 112.194 302.809 108.965C304.646 111.622 303.252 116.75 301.796 117.762V117.764ZM355.607 110.614C362.757 112.228 363.419 113.577 357.443 116.565C359.342 114.793 354.278 112.07 350.289 111.82C351.872 111.314 353.391 110.807 354.974 110.427C355.175 110.516 355.388 110.577 355.606 110.609L355.607 110.614ZM352.062 98.3943C352.632 100.04 353.518 106.561 353.834 108.967C344.275 111.437 335.159 116.5 328.828 120.678C327.815 116.69 326.423 109.853 324.967 108.081C324.207 107.194 321.548 105.295 319.206 103.586C315.407 100.864 315.09 101.246 314.964 101.813C314.647 103.143 324.46 108.397 324.017 109.853C303.771 110.551 305.601 110.442 305.088 110.613C302.809 103.776 296.035 92.19 292.803 88.0125C295.143 87.6953 298.754 87.4424 303.692 87.1889C310.529 95.4823 331.99 108.651 340.537 93.7097C342.877 92.8868 346.171 91.2397 347.943 89.4048C349.616 92.2533 350.996 95.2638 352.062 98.3904V98.3943ZM339.337 92.5072C338.531 94.035 337.459 95.4067 336.172 96.558C334.526 95.9886 332.817 93.7728 332.12 94.5326C331.55 95.2294 333.006 97.0026 334.46 97.6981C331.105 99.5337 325.091 98.5841 321.039 97.1918C320.407 93.1397 326.041 75.9836 334.841 77.6268C337.563 78.1338 335.283 81.7419 337.376 83.1349C340.414 84.7807 341.111 87.8799 340.034 90.9849C338.135 90.5416 336.426 88.9589 335.856 89.6557C335.159 90.4773 336.995 91.8702 339.337 92.5033V92.5072ZM364.09 74.9052C355.227 81.2362 353.265 84.9081 348.833 81.5528C347.441 76.6128 349.719 76.1084 349.403 71.6136C349.213 69.0786 345.351 65.1559 344.528 66.1055C344.212 66.4858 344.338 66.8023 344.655 67.1189C348.517 70.7907 348.341 72.7843 346.871 76.2982C346.639 76.8585 346.552 77.468 346.617 78.0707C347.567 85.2246 349.973 88.3264 341.616 91.4919C343.199 87.3768 341.49 83.7686 338.071 81.363C338.514 74.9052 333.131 74.2091 328.068 77.944C325.728 76.1084 323.637 75.9186 325.663 73.004C325.917 72.6237 326.233 72.1174 325.728 71.9276C325.032 71.611 323.258 73.3199 323.133 74.7128C322.942 76.6752 324.968 77.5618 326.805 79.1445C321.234 84.7157 319.46 92.5027 319.334 96.5541C309.965 92.5027 303.95 86.5513 301.735 81.0438C300.278 77.4987 300.848 74.2065 303.381 69.2684C306.419 74.5867 312.94 74.7128 316.929 67.9392C321.739 68.9519 328.893 68.6984 334.718 67.7494C340.542 66.8004 346.174 64.4578 347.947 59.3936C350.542 61.1025 349.973 61.7986 353.771 59.0771C356.05 64.5215 360.355 70.9786 365.483 73.8906C364.973 74.1611 364.504 74.5028 364.09 74.9052ZM367.066 72.5652C367.001 72.6302 366.939 72.6302 366.876 72.6952C361.305 69.9093 356.81 62.3758 354.974 57.6913C355.104 55.4117 356.114 48.9546 360.102 52.2469C362.317 54.0194 365.863 47.5623 370.927 52.1201C368.902 53.5761 366.622 54.9691 367.572 55.7289C368.522 56.4888 370.357 54.7793 372.13 53.3239C373.136 54.6348 373.946 56.0852 374.535 57.6295C373.585 58.5785 371.516 59.7095 371.749 60.6046C372.095 61.9267 373.522 60.5396 375.041 59.3384C376.119 65.5342 371.18 69.3958 367.066 72.5613V72.5652Z" fill="#001434"/>
<path d="M390.172 28.9425C389.349 29.3221 391.502 30.2087 391.945 32.3615C392.515 35.02 388.083 35.0837 386.754 34.2608C386.03 33.8109 385.431 33.187 385.011 32.446C384.591 31.705 384.363 30.8706 384.349 30.0189C384.284 29.1323 383.716 28.8794 383.526 29.766C382.829 36.476 390.426 37.3626 392.642 34.576C394.475 32.3615 391.122 28.4992 390.172 28.9425Z" fill="#001434"/>
<path d="M338.514 53.8226C338.324 53.3793 337.627 53.5691 337.184 53.7576C335.031 54.7205 332.706 55.2374 330.347 55.2773C326.106 55.3423 325.407 60.2784 328.258 61.7981C329.904 62.6841 331.93 62.4943 333.829 62.051C338.071 61.1013 339.147 59.2657 337.754 55.3404C338.197 55.1519 338.705 54.2653 338.514 53.8226ZM336.235 59.1403C334.935 60.3753 329.145 61.5453 328.512 59.4568C328.971 59.5448 329.44 59.5667 329.905 59.5218C330.601 59.4568 330.914 58.463 330.158 58.3193C329.542 58.2169 328.945 58.0249 328.385 57.7493C329.588 56.1035 333.325 57.306 336.172 55.9137C336.741 56.3544 336.495 58.8933 336.235 59.1403Z" fill="#001434"/>
<path d="M395.744 66.0405C392.895 65.3443 391.059 68.3805 391.882 68.8894C392.325 69.1429 392.832 66.7366 395.427 67.2436C397.137 67.5602 398.339 70.8518 394.351 71.1683C393.465 71.2333 393.591 71.9282 395.744 71.6747C398.782 71.2314 398.782 66.7366 395.744 66.0405Z" fill="#001434"/>
<path d="M210.235 53.9202C221.327 51.068 219.045 37.6955 215.24 35.7936C211.436 33.8917 202.5 30.9771 199.839 31.5478C203.706 32.8147 204.657 35.9841 203.896 38.1388C207.635 41.9413 205.734 45.3005 201.551 43.526C201.973 45.1305 202.29 46.7607 202.502 48.4062C202.834 50.2611 202.748 52.1668 202.248 53.9839C202.248 53.9839 207.639 54.5539 210.235 53.9202Z" fill="#3D9CFB"/>
<path d="M250.23 25.2096C250.23 24.3217 248.581 24.3217 246.236 24.3854C242.941 24.5154 245.413 27.6809 245.222 28.0611C245.096 28.5051 242.371 28.3146 241.99 29.1388C241.483 30.2165 243.067 32.1178 243.004 32.498C242.939 33.1318 240.786 32.628 240.088 32.8783C239.931 32.988 239.813 33.1449 239.751 33.3262C239.688 33.5075 239.685 33.704 239.742 33.8872C239.798 34.0705 239.911 34.2311 240.065 34.3459C240.218 34.4607 240.404 34.5237 240.596 34.526C242.751 34.591 244.399 34.461 244.716 33.512C245.033 32.563 243.574 30.7235 243.765 30.2796C243.955 29.8356 246.871 29.8363 247.187 29.0121C247.567 28.0611 246.034 26.7247 246.364 26.0331C246.485 25.777 250.23 26.2866 250.23 25.2096Z" fill="#3D9CFB"/>
<path d="M195.787 8.79443C195.534 7.40018 195.332 2.79038 193.442 3.28048C193.338 3.31776 193.242 3.37523 193.16 3.44958C193.078 3.52393 193.012 3.61371 192.965 3.71377C192.918 3.81383 192.891 3.92219 192.886 4.03266C192.881 4.14313 192.897 4.25353 192.935 4.35753C193.406 5.60758 193.746 6.9033 193.949 8.22373C189.022 8.55978 188.824 7.90523 191.034 12.9141C185.065 13.1676 185.451 11.9333 186.47 17.9191C186.535 18.3624 186.977 18.7427 187.357 18.6159C188.942 18.2994 187.292 14.9402 187.611 14.5599C187.93 14.1797 191.931 14.7621 192.681 14.116C193.26 13.6181 191.541 10.4402 191.667 9.93323C191.857 9.42818 196.104 10.5052 195.787 8.79443Z" fill="#3D9CFB"/>
<path d="M234.765 15.639C234.005 14.4982 230.519 17.4135 229.505 18.4912C228.491 19.5689 232.04 21.5332 231.975 21.9771C231.91 22.4211 228.616 23.1809 228.616 24.3821C228.616 25.5833 232.228 27.6776 232.228 28.1216C232.228 28.5018 228.932 30.1496 229.693 31.1636C229.76 31.2726 229.848 31.3664 229.953 31.4391C230.058 31.5118 230.177 31.5617 230.302 31.5856C230.428 31.6095 230.557 31.6068 230.681 31.5778C230.805 31.5488 230.922 31.494 231.024 31.4171C231.404 31.1636 234.256 29.1356 234.319 28.1216C234.384 27.0439 230.58 25.0159 230.58 24.5719C230.58 24.128 234.067 23.0516 234.067 22.2904C234.067 21.5293 231.402 19.5019 231.277 19.1217C231.153 18.7414 235.526 16.7797 234.765 15.639Z" fill="#3D9CFB"/>
<path d="M223.864 34.2723C223.864 34.2723 222.216 25.9061 219.681 23.6883C217.145 21.4705 207.006 19.5686 203.329 20.0119C199.653 20.4552 195.914 26.6036 195.914 26.6036L200.794 28.1883C202.442 21.5966 210.618 23.2444 214.611 24.7654C218.603 26.2864 218.857 32.5608 218.857 32.8143L223.864 34.2723Z" fill="#3D9CFB"/>
<path d="M154.717 26.7936C154.274 24.3886 154.847 23.3076 153.893 22.8643C152.879 22.4204 150.788 24.1318 150.344 23.8783C149.837 23.6248 151.421 19.9491 150.409 19.2516C149.397 18.5542 146.417 19.6956 145.973 19.3166C145.529 18.9377 146.733 15.3237 145.466 15.3237C144.198 15.3237 144.452 17.0345 144.262 17.6682C144.08 18.5948 144.124 19.5517 144.392 20.4574C145.088 21.5344 148.511 20.3274 149.018 20.6472C149.525 20.967 147.434 24.3866 148.828 25.5274C150.222 26.6681 152.377 24.5764 152.757 24.7669C153.074 24.9567 152.947 27.6821 153.961 27.8095C154.975 27.9369 154.844 27.2999 154.717 26.7936Z" fill="#3D9CFB"/>
<path d="M232.357 75.025C232.04 74.4549 234.575 72.1097 234.321 71.2862C234.067 70.4626 230.899 70.1448 230.646 69.511C230.392 68.8773 231.216 67.6098 231.786 66.6595C232.357 65.7716 231.153 64.8213 230.265 66.0888C229.378 67.2932 228.174 69.8282 228.618 70.5887C229.061 71.3492 232.103 71.6027 232.23 72.0467C232.357 72.4906 229.885 74.3919 230.202 75.7224C230.519 77.053 234.449 76.9899 234.638 77.4969C234.828 78.0039 232.991 80.6657 234.321 81.4899C234.524 81.5545 234.744 81.5454 234.941 81.4642C235.138 81.383 235.3 81.2349 235.399 81.0459C236.286 77.8141 237.237 77.3065 236.54 76.4829C235.781 75.53 232.547 75.3422 232.357 75.025Z" fill="#3D9CFB"/>
<path d="M216.892 84.5953C215.435 86.4966 199.273 93.5315 192.174 93.722C201.428 92.2003 213.85 83.3909 213.089 81.6164C213.85 79.7782 212.582 76.6114 210.998 72.363C217.336 67.1025 218.733 61.3988 218.733 61.3988L200.225 56.0746C198.49 57.1184 197.009 58.5362 195.891 60.2247C194.772 61.9132 194.045 63.8298 193.761 65.835C192.43 61.0179 170.501 67.7363 167.522 61.0179C164.416 66.0229 159.663 62.3491 157.635 60.8281C159.916 67.2293 151.867 79.1444 154.529 81.6794C156.177 83.8348 164.923 87.5743 166.191 87.9545C167.142 88.2074 168.219 88.1443 170.817 87.8895C171.451 87.8245 171.515 83.0093 171.515 78.0661C174.874 78.0661 173.163 92.7067 177.346 95.1149C174.811 101.643 174.811 107.284 173.67 108.678C169.867 113.431 168.665 120.466 168.665 120.466C188.312 123.382 193.383 116.22 202.89 102.34C203.079 103.679 202.996 105.042 202.648 106.349C202.299 107.655 201.692 108.878 200.861 109.945C202.909 113.481 204.729 117.143 206.312 120.91C211.065 119.262 224.375 109.375 226.149 105.635C227.984 102.785 218.54 85.2291 216.892 84.5953Z" fill="#3D9CFB"/>
<path d="M151.995 38.1386C150.664 37.6953 150.284 41.4341 149.65 41.6239C149.016 41.8137 146.608 39.343 145.721 39.9761C144.834 40.6092 145.404 43.6525 144.643 44.0328C143.882 44.413 140.461 40.357 139.638 42.1315C138.816 43.906 139.043 43.7338 138.054 45.8073C137.97 46.0019 137.963 46.2206 138.034 46.4202C138.104 46.6197 138.247 46.7856 138.434 46.885C139.955 47.3283 140.208 43.7793 140.778 43.5888C141.413 43.4627 143.631 46.441 145.278 45.934C146.926 45.427 146.229 42.1315 146.673 41.8781C147.117 41.6246 150.032 44.7933 150.729 43.1455C151.549 41.4978 153.323 38.5819 151.995 38.1386Z" fill="#3D9CFB"/>
<path d="M230.962 38.7721C217.716 37.6313 215.561 57.5954 227.033 59.9406C237.237 62.0954 244.208 39.9128 230.962 38.7721Z" fill="#3D9CFB"/>
<path d="M257.074 42.6398C255.68 41.6252 254.729 44.7315 254.032 44.6678C253.336 44.6041 252.004 41.8793 250.8 41.7526C249.595 41.6258 248.138 44.9213 247.504 44.9844C246.871 45.0474 246.236 41.6252 245.159 41.8793C244.082 42.1335 244.145 42.7029 242.308 43.8443C242.216 43.9023 242.137 43.9779 242.074 44.0666C242.012 44.1554 241.967 44.2556 241.944 44.3615C241.92 44.4675 241.918 44.577 241.936 44.6839C241.955 44.7908 241.995 44.8929 242.053 44.9844C242.941 46.1258 244.462 44.1608 244.906 44.2876C245.35 44.4143 246.11 47.2665 247.187 47.2665C248.264 47.2665 250.103 44.0341 250.673 44.0971C251.307 44.0971 252.638 47.013 253.843 47.013C254.413 47.013 255.363 46.6328 256.123 45.3016C256.567 44.4767 258.088 43.399 257.074 42.6398Z" fill="#3D9CFB"/>
<path d="M251.12 59.1804C249.662 59.0537 248.204 61.7804 247.634 61.5854C247.064 61.4587 247.317 58.4167 246.113 58.1632C244.91 57.9097 242.944 60.0007 242.564 59.8109C242.184 59.6211 241.423 57.3409 241.043 56.7052C240.663 56.0695 239.205 56.5785 239.585 57.4027C240.07 58.8026 240.753 60.1258 241.613 61.3319C242.627 62.5994 245.162 60.0644 245.48 60.1912C245.797 60.3179 246.113 63.4236 247.127 63.6771C248.141 63.9306 250.487 60.7619 250.867 60.9517C251.247 61.0784 251.053 65.3522 252.641 65.5784C253.147 65.6505 253.529 65.0714 253.465 64.5644C252.765 61.7154 252.574 59.3072 251.12 59.1804Z" fill="#3D9CFB"/>
<path d="M169.61 13.2305C169.61 12.1535 166.251 11.1388 166.251 10.442C166.251 9.99806 168.851 9.74456 169.357 8.47706C169.547 7.78026 168.722 7.40001 168.152 6.82931C167.582 6.25861 165.427 4.16431 164.35 5.43506C164.243 5.62877 164.216 5.85681 164.275 6.07014C164.334 6.28347 164.475 6.46504 164.666 6.57581C165.934 7.27261 167.266 7.97006 167.266 8.22356C167.266 8.54011 164.478 9.36431 164.478 10.442C164.478 11.5197 167.457 12.7866 167.393 13.2305C167.328 13.6108 164.098 14.1815 164.858 16.019C165.428 17.477 167.52 19.5687 168.343 18.998C169.167 18.4273 166.633 16.1458 166.696 15.3853C166.759 14.6248 169.61 14.3082 169.61 13.2305Z" fill="#3D9CFB"/>
<path d="M183.555 45.9969C185.076 46.5045 185.709 41.3071 189.195 44.0956C189.356 44.2416 189.567 44.3189 189.784 44.3108C190.001 44.3027 190.206 44.21 190.355 44.0525C190.505 43.8949 190.586 43.6852 190.583 43.4682C190.579 43.2512 190.491 43.0443 190.336 42.8918C190.271 42.8268 188.308 40.8638 186.027 41.7511C183.428 42.7014 182.604 45.6803 183.555 45.9969Z" fill="#001434"/>
<path d="M231.153 106.015C229.822 97.7756 225.512 87.4452 220.378 81.8045C221.392 78.6351 219.555 76.037 217.843 72.5504C221.266 69.8256 223.611 66.5932 224.688 63.1072C235.272 64.5652 242.368 49.4176 237.935 39.847C236.097 36.0445 230.899 34.4598 226.399 33.5732C225.765 31.3547 223.484 23.4332 221.459 21.7841C218.544 19.3759 207.452 16.7791 202.635 17.4109C200.165 17.7281 196.741 20.1994 193.446 24.0663C191.671 23.1153 189.009 23.4325 186.411 24.3828C186.411 20.5166 180.579 21.2771 178.425 23.4325C175.572 18.4275 169.995 23.0523 169.488 28.3121C165.369 27.8688 159.413 31.1012 161.818 35.3477C158.522 37.8177 156.431 41.0514 158.079 44.2839C154.466 46.9456 154.213 52.8398 158.713 53.3468C158.648 55.3755 159.093 57.2767 160.678 58.4168C160.14 59.0716 159.789 59.8601 159.663 60.6983C158.079 59.8741 155.291 58.4799 154.086 57.7194C154.021 53.4729 149.776 51.6984 146.671 54.5506C135.833 48.7832 126.072 72.6772 146.541 79.9006C145.526 81.8025 146.731 82.6261 149.52 84.0203C152.907 85.7367 156.425 87.1796 160.042 88.335C163.401 89.412 168.851 88.4618 170.879 88.27C171.133 90.9318 171.577 93.34 172.4 94.6082C172.907 103.1 165.112 112.798 164.415 119.706C164.161 122.371 164.48 124.396 164.859 125.093C165.619 126.487 165.936 126.805 169.295 126.742C179.182 126.551 193.759 126.487 199.21 126.234C202.886 126.044 203.203 123.382 201.81 121.099C201.049 119.895 198.134 118.691 196.359 117.296C198.007 115.078 199.591 113.05 200.986 111.086C204.408 114.508 204.345 123.951 209.669 124.522C212.775 125.029 240.089 115.902 240.534 111.339C240.977 107.349 235.906 107.412 231.153 106.015ZM229.188 35.6668C237.111 38.1368 238.632 45.6807 236.54 51.9552C233.371 61.5888 226.27 63.0468 218.16 60.1946C213.562 58.5696 212.25 52.9146 212.836 47.7347C213.711 39.9867 219.39 32.591 229.188 35.6668ZM219.178 31.9274C215.224 30.9108 212.808 30.5091 210.875 30.0261C210.98 29.0062 211.281 28.0163 211.762 27.1109C211.829 27.0222 211.876 26.92 211.9 26.8113C211.924 26.7026 211.924 26.59 211.9 26.4814C211.875 26.3728 211.828 26.2708 211.76 26.1823C211.693 26.0939 211.607 26.0213 211.508 25.9695C209.861 25.1459 209.543 28.5695 209.291 29.7089C208.086 29.4561 207.009 29.2026 205.868 28.9484C206.05 27.8971 206.37 26.8743 206.819 25.9064C206.871 25.8082 206.902 25.6996 206.907 25.5883C206.913 25.477 206.894 25.3659 206.851 25.2629C206.809 25.1598 206.744 25.0675 206.662 24.9926C206.579 24.9176 206.481 24.8619 206.375 24.8294C205.298 24.5752 204.664 27.2994 204.22 28.5682C202.319 28.1249 200.924 27.8714 200.354 27.7446C200.104 27.3674 199.78 27.0441 199.403 26.7937C202.125 17.7307 220.571 23.3714 219.174 31.9274H219.178ZM220.572 33.8923C218.492 34.6036 216.65 35.8756 215.248 37.5681L211.382 36.6808C212 35.2137 212.528 33.7111 212.966 32.1809C215.436 32.7516 218.036 33.3216 220.571 33.8923H220.572ZM206.945 30.8503C208.277 31.1669 209.798 31.4841 211.319 31.8006C210.884 33.3115 210.355 34.7934 209.734 36.2375L205.361 35.2235C205.979 33.8004 206.507 32.3398 206.942 30.8503H206.945ZM204.22 33.6388C203.46 32.3593 202.269 31.3929 200.861 30.9134C201.048 30.4732 201.134 29.9969 201.114 29.5191C202.128 29.7089 203.584 30.0892 205.361 30.4701C205.041 31.5478 204.597 32.6879 204.217 33.6388H204.22ZM203.27 35.2866C204.22 36.998 202.065 38.4553 200.291 37.6318C199.456 35.883 198.318 34.2954 196.931 32.942C197.85 32.9556 198.761 32.7605 199.593 32.3713C201.238 32.435 202.696 33.8923 203.266 35.2866H203.27ZM203.27 39.026C206.185 40.8005 205.171 45.047 202.319 43.019C201.984 41.8141 201.582 40.629 201.114 39.4693C201.859 39.5207 202.603 39.3674 203.266 39.026H203.27ZM205.74 44.4132C206.104 44.0679 206.367 43.6296 206.5 43.1457C207.642 43.3355 208.782 43.589 208.845 43.9693C209.352 45.617 208.094 48.8612 207.514 49.2934C207.077 49.6184 205.17 49.1667 203.394 48.5966C203.251 47.4231 203.039 46.259 202.761 45.11C203.274 45.2698 203.821 45.2894 204.344 45.1669C204.867 45.0444 205.349 44.7842 205.738 44.4132H205.74ZM203.583 50.31C205.168 50.6903 207.132 51.3877 208.523 50.6272C209.727 49.9298 210.488 45.3661 210.552 43.9719C210.617 42.3878 208.27 41.7541 206.685 41.5019C206.494 40.1008 205.767 38.8285 204.657 37.9522C204.907 37.6196 205.06 37.2251 205.101 36.8115C208.15 37.5 211.192 38.2185 214.227 38.9669C210.171 44.1669 210.425 56.1425 214.038 59.1214C208.838 57.7902 204.023 56.3323 201.869 55.6355C202.961 54.0723 203.558 52.2168 203.583 50.31ZM202.826 18.9982C207.135 18.4275 217.847 20.8995 220.382 23.0549C221.586 24.0689 223.424 29.3287 224.501 33.1949C223.297 32.9414 222.031 32.6242 220.825 32.3707C222.663 22.0402 201.748 15.3218 197.945 26.0962C196.986 25.7749 195.959 25.7092 194.967 25.9058C194.878 25.6737 194.749 25.4592 194.586 25.272C198.259 20.8995 201.238 19.188 202.826 18.9982ZM163.147 36.4273C164.288 36.9343 168.091 37.3783 167.71 35.5401C167.457 34.2089 163.211 36.6808 162.894 33.8286C162.513 30.7866 166.316 30.1529 169.611 29.9C169.941 29.8733 170.254 29.7421 170.505 29.5256C170.755 29.3091 170.93 29.0183 171.005 28.6956C171.702 25.6536 173.41 22.8651 175.378 22.9281C177.596 22.8631 176.519 25.7173 177.913 26.0975C178.097 26.1339 178.288 26.1025 178.451 26.0093C178.614 25.916 178.738 25.7671 178.8 25.5899C179.371 24.1956 181.205 23.3721 182.667 23.2453C184.441 23.1153 185.3 23.7731 184.314 25.4001C184.225 25.5527 184.188 25.73 184.208 25.9056C184.228 26.0812 184.305 26.2455 184.426 26.374C184.547 26.5024 184.707 26.5881 184.881 26.6182C185.055 26.6483 185.235 26.6211 185.392 26.5408C188.688 24.7033 195.467 24.0058 192.87 27.9988C192.731 28.1674 192.664 28.3839 192.684 28.6015C192.703 28.8191 192.808 29.0203 192.974 29.1617C193.141 29.3031 193.356 29.3733 193.574 29.3573C193.792 29.3412 193.994 29.2401 194.138 29.0758C194.559 28.5936 194.882 28.0348 195.091 27.43C200.478 26.5428 203.14 33.8312 190.654 30.2192C190.464 29.2052 188.626 26.6695 187.486 28.0638C187.394 28.2605 187.375 28.4837 187.433 28.693C187.491 28.9023 187.622 29.084 187.802 29.2052C192.049 32.437 185.202 33.5784 182.862 32.0567C182.672 30.6625 178.702 27.5067 177.982 29.0147C177.95 29.1187 177.939 29.2281 177.951 29.3363C177.963 29.4445 177.996 29.5492 178.049 29.6441C178.103 29.739 178.175 29.822 178.261 29.8881C178.348 29.9542 178.447 30.0021 178.552 30.0287C182.127 31.1467 182.292 34.2115 180.137 35.4159C177.348 37.0006 176.587 33.3879 175.573 34.0847C175.003 34.465 175.383 35.7331 176.334 36.3669C178.425 37.7611 182.672 37.6344 182.988 33.8969C185.458 34.7211 189.58 34.9746 190.593 31.9956C197.628 31.9306 201.398 43.0976 201.938 49.8706C202.476 56.604 193.889 57.9202 193.319 63.8781C188.565 59.3775 170.629 69.0749 166.383 57.3495C166.964 56.1703 167.227 54.8592 167.143 53.547C170.122 52.8496 170.312 47.9694 169.995 46.3853C171.263 45.3707 171.77 43.5331 171.833 42.1389C175.509 43.5962 176.956 37.8079 175.319 37.3854C174.872 37.2697 174.306 37.5154 174.432 37.9555C174.685 44.2299 167.904 38.7797 172.847 34.153C173.735 33.3288 172.341 32.3148 171.263 33.3925C169.869 34.7867 168.347 37.7657 169.805 40.1109C170.566 41.1879 170.502 42.7759 169.425 44.6739C167.777 46.9554 165.305 44.8006 165.178 42.8994C165.052 40.9981 167.017 39.5402 165.622 38.8427C164.164 38.0822 163.468 41.5077 163.531 43.2159C158.267 47.645 157.57 39.3432 163.147 36.4273ZM161.119 50.245C161.204 50.0506 161.212 49.8312 161.141 49.6312C161.071 49.4311 160.927 49.2653 160.739 49.1673C159.345 48.7234 159.218 50.8788 158.901 51.7673C155.732 51.2603 156.746 47.3304 159.218 45.4929C160.739 46.5699 162.767 45.9362 163.971 44.7954C164.336 45.6215 164.982 46.2913 165.794 46.6859C166.607 47.0804 167.533 47.1741 168.408 46.9502C169.548 52.9081 161.613 53.6146 163.845 48.0279C164.023 47.5794 163.91 47.0139 163.464 46.9502C162.513 46.7584 162.136 47.645 162.006 48.5329C161.689 50.5609 163.21 53.7934 165.492 53.5379C164.985 61.6519 157.633 56.2653 161.119 50.245ZM136.909 69.955C136.233 68.4881 135.928 66.8776 136.021 65.2652C136.909 65.6455 137.795 66.2792 138.746 66.4053C138.91 66.4493 139.085 66.4296 139.235 66.3503C139.385 66.2709 139.5 66.1377 139.556 65.9774C139.612 65.8171 139.606 65.6416 139.538 65.4858C139.47 65.3301 139.346 65.2058 139.19 65.1378C138.19 64.6402 137.217 64.0902 136.275 63.4901C136.662 61.9675 137.237 60.4988 137.986 59.1175C140.774 60.7653 141.345 61.5875 141.915 60.5748C142.296 59.9411 140.014 58.5468 138.873 57.7226C142.929 52.3354 144.894 57.8493 147.683 55.8214C149.774 53.9838 152.119 55.1876 152.563 58.0398C153.831 66.0251 149.963 74.518 147.302 78.5746C145.908 78.0039 139.317 75.2154 136.909 69.955ZM172.341 76.9262C172.341 75.0887 170.883 75.3422 170.692 76.9912C170.376 79.4612 170.627 84.1529 170.692 86.8147C161.44 87.8287 159.221 87.4491 148.51 81.8714C148.379 81.8204 148.262 81.7394 148.168 81.6349C148.074 81.5305 148.006 81.4055 147.969 81.27C147.932 81.1345 147.927 80.9922 147.955 80.8545C147.983 80.7168 148.043 80.5876 148.129 80.4772C150.729 77.0549 154.848 67.9283 154.278 59.9424C156.052 60.9564 158.65 62.2239 159.664 62.7309C162.329 74.7734 184.002 67.2308 190.404 71.8575C191.291 72.4282 193.065 72.2378 191.227 70.7798C189.389 69.3219 187.615 68.4983 179.122 68.6888C169.425 68.8786 166.699 68.2448 163.468 65.7729C161.312 64.1888 160.298 60.9564 162.454 59.3086C163.43 59.4641 164.429 59.2371 165.242 58.6749C168.791 66.4099 177.763 65.5356 186.03 64.3156C193.551 63.2054 192.051 67.1041 193.953 66.7238C196.171 66.2805 192.241 63.4914 200.607 57.0902C201.241 57.2806 202.509 57.6609 204.157 58.1679C200.734 60.8933 196.512 67.1164 199.022 68.3079C199.406 68.4899 199.719 68.0544 199.845 67.6741C200.733 63.1105 203.394 61.5264 205.93 58.7379C210.81 60.1322 217.655 62.0334 223.169 63.0474C221.955 66.3107 219.846 69.1661 217.085 71.2868C216.768 70.6531 213.219 65.7092 211 63.6818C209.796 62.6041 208.656 63.5551 209.859 64.8863C213.535 69.0053 221.845 78.3185 218.035 82.6963C213.615 87.7741 195.536 95.5617 173.923 94.1044C172.081 92.0745 172.341 82.7574 172.341 76.9262ZM199.784 121.482C201.685 122.496 200.926 124.671 199.849 124.778C193.458 125.406 172.659 125.665 167.399 125.412C165.941 125.347 165.687 123.13 165.941 121.228C173.293 122.116 187.617 122.37 195.159 118.628C197.756 120.278 199.083 121.102 199.78 121.485L199.784 121.482ZM206.819 119.771C205.424 116.602 204.157 112.292 201.938 109.82C204.093 106.715 203.396 101.074 203.015 95.94C202.995 95.8359 202.954 95.7369 202.895 95.6486C202.836 95.5604 202.76 95.4846 202.672 95.4257C202.584 95.3668 202.485 95.326 202.38 95.3055C202.276 95.285 202.169 95.2852 202.065 95.3063C200.48 95.4363 203.079 104.75 200.861 108.111C199.023 110.9 197.122 113.625 194.586 117.047C185.65 121.358 169.678 119.963 166.003 119.582C167.587 110.9 173.673 105.069 173.862 95.8158C193.763 97.0197 215.058 89.414 219.368 83.33C224.628 89.351 227.923 98.0974 229.443 106.21C222.153 108.68 214.041 116.475 206.815 119.771H206.819ZM238.381 111.595C237.747 112.355 234.324 114.511 230.078 116.412C222.726 119.771 213.029 123.066 210.113 123.066C208.466 123.066 207.708 122.242 207.452 121.228C214.74 117.996 223.169 109.884 230.462 107.539C232.616 108.299 235.151 108.426 236.863 109.06C238.186 109.567 239.265 110.581 238.381 111.595Z" fill="#001434"/>
<path d="M224.117 53.0956C230.265 54.8701 232.737 44.3492 226.145 43.7154C219.934 43.1454 218.413 51.4478 224.117 53.0956ZM228.173 46.8848C230.011 52.1453 222.089 53.6026 222.216 47.9619C222.28 45.3632 227.286 44.2224 228.175 46.8848H228.173Z" fill="#001434"/>
<path d="M175.759 43.0824C176.647 43.7792 177.85 41.1805 181.654 40.8003C181.87 40.7724 182.066 40.6605 182.201 40.4888C182.335 40.3171 182.396 40.0994 182.371 39.8828C182.346 39.6662 182.237 39.4682 182.067 39.3315C181.898 39.1949 181.681 39.1306 181.464 39.1525C177.85 39.7863 174.492 42.0678 175.759 43.0824Z" fill="#001434"/>
<path d="M188.498 38.5818C189.196 38.6468 190.21 37.5048 192.935 37.4411C193.048 37.4459 193.16 37.4283 193.266 37.3894C193.371 37.3505 193.468 37.291 193.551 37.2144C193.633 37.1379 193.7 37.0457 193.746 36.9432C193.793 36.8408 193.819 36.7301 193.822 36.6175C193.633 35.1596 190.21 35.8564 188.498 36.871C187.485 37.5048 187.104 38.4551 188.498 38.5818Z" fill="#001434"/>
<path d="M184.885 48.2163C185.202 49.1029 186.849 48.0863 188.751 47.8991C189.892 47.7691 189.638 46.3781 188.561 46.3781C187.167 46.3781 184.442 47.0118 184.885 48.2163Z" fill="#001434"/>
<path d="M179.945 54.3639C181.086 60.5116 197.058 55.8212 194.523 50.434C193.002 47.2653 189.643 49.8003 187.298 49.6735C182.161 49.42 179.119 49.9907 179.945 54.3639ZM190.403 50.7506C192.431 49.927 192.685 50.3703 192.938 50.8156C194.586 54.1748 182.987 57.2805 181.657 54.3015C182.481 54.3015 184.478 54.4965 184.257 53.1608C184.207 52.9552 184.081 52.7761 183.905 52.6588C183.729 52.5414 183.515 52.4944 183.306 52.527C182.7 52.641 182.081 52.6629 181.468 52.592C181.464 50.6076 187.885 51.799 190.4 50.7506H190.403Z" fill="#001434"/>
<path d="M190.273 41.0539C191.033 42.7016 194.836 38.8991 197.624 40.7373C199.019 41.6239 199.082 39.0259 197.559 38.8991C198.13 37.1246 195.785 36.6807 195.975 38.5819C195.28 38.5819 189.322 39.0259 190.273 41.0539Z" fill="#001434"/>
<path d="M181.464 44.5397C180.766 42.3849 175.379 45.7441 174.492 46.2511C172.717 44.2862 171.133 46.1861 173.414 47.5186C172.971 48.2791 172.591 49.5466 173.731 49.6734C174.745 49.6084 174.492 48.3422 175.252 47.7084C175.949 47.0116 178.485 45.7441 180.703 45.4269C181.21 45.4269 181.653 44.983 181.464 44.5397Z" fill="#001434"/>
<path d="M234.829 51.5747C235.463 49.2932 235.906 45.934 234.575 42.7653C230.582 32.7514 214.864 36.9978 214.548 46.6315C213.977 62.4759 232.04 62.0956 234.829 51.5747ZM225.068 38.6456C238.124 38.4551 235.589 59.3702 223.23 57.1524C212.77 55.3148 214.041 38.8354 225.068 38.6456Z" fill="#001434"/>
<path d="M191.097 57.4691C189.639 58.1028 187.674 58.42 186.47 58.8003C185.393 59.1805 185.773 60.2576 186.47 60.3213C188.082 60.3912 189.682 60.0185 191.097 59.2436C192.048 58.7372 192.174 56.9621 191.097 57.4691Z" fill="#001434"/>
<path d="M84.6829 122.119C82.0829 122.435 80.8193 122.815 75.6895 120.979C76.8926 123.131 81.2632 124.082 77.2098 127.185C81.9593 127.12 86.7096 127.818 88.1025 126.932C89.4331 126.108 87.2796 123.892 84.6829 122.119Z" fill="#3D9CFB"/>
<path d="M65.6825 72.0211C68.0225 73.9211 69.4193 74.6211 70.2423 74.8077C71.0652 74.9942 74.5661 73.6208 75.3123 72.8447C76.0273 72.0998 76.8326 69.1709 78.5428 68.411C80.2529 67.6512 81.3293 71.1976 82.6592 70.6912C86.2693 69.3613 88.0425 70.5008 88.0425 70.5008C94.5659 63.6608 93.9959 54.2872 93.9959 54.2872C90.0692 58.6571 82.786 55.2375 82.786 55.2375C80.186 63.6608 69.1061 69.5511 59.0987 69.1709C50.2957 68.8543 45.1022 64.864 45.1022 64.864C40.5418 72.0842 46.1156 79.0509 45.7353 82.4081C45.4188 85.8278 43.6456 86.6513 43.3303 90.6417C43.0768 93.3645 45.1035 97.9867 45.3564 100.392C45.5293 102.286 45.1787 104.192 44.343 105.901C44.1372 106.361 44.0581 106.868 44.1138 107.369C44.1696 107.87 44.3582 108.348 44.6602 108.751C49.3467 114.895 63.9769 118.252 72.02 116.732C79.937 115.275 86.775 109.069 90.8303 102.165C91.3923 101.234 91.5739 100.123 91.3373 99.0618C90.4798 95.3152 88.5418 91.9026 85.7636 89.2468C85.7636 89.2468 76.0104 94.6301 65.6871 94.6301C60.4936 94.6301 55.8721 90.7034 54.9205 88.2965C50.9256 78.1012 61.1228 71.8313 65.6825 72.0211Z" fill="#3D9CFB"/>
<path d="M71.1297 122.435C63.2127 125.159 54.8524 124.272 48.8347 123.638C48.8347 123.638 48.7697 126.932 51.4952 127.438C54.2206 127.945 67.1387 127.438 71.8889 127.373C76.6391 127.308 76.2602 124.272 71.1297 122.435Z" fill="#3D9CFB"/>
<path d="M21.4754 54.4776C21.0952 55.2375 22.1085 55.9343 22.8684 56.1878C25.4034 57.2011 27.1116 56.1878 28.3791 55.2375C29.3918 54.4776 27.9553 53.1087 26.8587 53.9706C25.3637 55.1445 24.6422 54.9209 23.6289 54.5407C22.8053 54.2241 21.855 53.7171 21.4754 54.4776Z" fill="#001434"/>
<path d="M23.3115 57.7076C22.2981 57.1375 22.1083 58.784 20.9682 59.5445C20.2532 59.9956 19.3921 60.1543 18.5632 59.9878C17.3601 59.8578 17.1696 61.5712 18.9428 61.761C21.9848 62.1412 24.8949 58.5942 23.3115 57.7076Z" fill="#001434"/>
<path d="M34.6486 65.4352C35.8518 67.0823 36.4218 67.7791 36.1053 68.4759C35.7887 69.2988 31.3551 72.4025 31.0353 73.9859C30.7187 75.4419 32.9983 76.5209 33.3148 77.5954C33.5683 78.5457 26.0953 84.499 28.6283 84.6258C29.7684 84.6908 33.8849 80.3189 34.8352 78.2291C35.6587 76.4553 32.6817 74.556 32.8085 73.9859C32.9352 72.9719 37.6835 70.0586 38.002 68.4759C38.132 67.8421 37.6854 66.7657 35.7218 64.3588C35.0282 63.5339 34.0155 64.5479 34.6486 65.4352Z" fill="#001434"/>
<path d="M20.7156 37.1871C21.222 37.1871 22.6149 36.4273 24.8321 36.2375C24.9323 36.2368 25.031 36.2133 25.1207 36.1687C25.2104 36.1242 25.2888 36.0597 25.3498 35.9803C25.4109 35.9009 25.453 35.8086 25.473 35.7105C25.493 35.6123 25.4903 35.5109 25.4652 35.4139C25.0433 33.7779 20.7156 35.0343 20.2086 35.4139C19.7016 35.7935 19.8284 37.1871 20.7156 37.1871Z" fill="#001434"/>
<path d="M59.0351 55.3005C57.832 55.9973 58.6549 57.5807 59.795 56.8839C61.3784 55.9342 64.0388 57.4539 64.2286 56.061C64.4158 54.2241 60.4255 54.5406 59.0351 55.3005Z" fill="#001434"/>
<path d="M56.7522 52.3873C58.1458 52.7675 58.413 49.1412 60.8693 51.6911C61.0353 51.8515 61.2504 51.9515 61.48 51.9751C61.7096 51.9986 61.9404 51.9444 62.1355 51.8211C63.6559 50.8071 60.6158 48.7174 58.5261 49.2861C56.879 49.7275 55.2325 52.0077 56.7522 52.3873Z" fill="#001434"/>
<path d="M63.8451 62.9005C62.2617 63.2801 61.2483 63.2801 60.235 62.8355C59.2847 62.3922 58.5255 63.9119 59.5388 64.3552C60.8687 64.9252 64.8584 65.115 64.8584 63.4686C64.8591 63.0909 64.289 62.8355 63.8451 62.9005Z" fill="#001434"/>
<path d="M58.9703 61.001C60.0215 61.0268 61.0498 60.6914 61.8836 60.0507C63.6568 61.571 66.4433 60.494 67.3299 59.4806C67.8369 58.9112 67.5198 57.7074 66.2536 58.3412C62.3269 60.3042 62.3269 57.0106 61.1238 58.4062C59.2862 60.4959 56.8169 57.7731 55.9933 59.103C55.2959 60.3042 57.8296 61.001 58.9703 61.001Z" fill="#001434"/>
<path d="M49.1552 43.8372C43.5184 43.8372 42.0618 48.9676 43.4554 51.7542C44.5318 54.2892 49.9151 54.2892 52.3851 53.5911C57.639 51.6274 56.7524 43.8372 49.1552 43.8372ZM46.5552 52.0077C48.6707 50.2496 50.6797 48.3674 52.5716 46.3709C54.4722 47.6371 54.2941 51.2888 51.9385 51.944C50.1744 52.3906 48.3294 52.4125 46.5552 52.0077Z" fill="#001434"/>
<path d="M17.6117 48.0155C20.525 48.7754 20.0817 50.0422 19.8919 51.4358C19.8269 52.0059 19.8269 52.8288 20.7154 52.8288C21.9186 52.8288 21.9816 50.0422 21.8555 49.2187C21.5383 47.3194 19.3855 46.3691 17.6747 46.1156C16.2818 45.9277 15.7754 47.5742 17.6117 48.0155Z" fill="#001434"/>
<path d="M77.3999 111.351C80.2495 107.551 81.4533 105.271 81.5163 102.865C81.5813 100.711 80.3132 99.0013 78.603 96.6581C78.2228 96.1517 77.3999 95.3912 76.9566 96.088C76.133 97.3549 80.9463 100.268 79.8062 104.195C79.5533 105.145 78.8565 107.172 76.3865 110.402C75.563 111.415 77.0196 111.858 77.3999 111.351Z" fill="#001434"/>
<path d="M96.5266 42.4443C94.4368 37.5693 90.8898 34.084 85.4428 29.2707C85.1847 29.0069 84.9927 28.6857 84.8827 28.3334C84.7726 27.9812 84.7476 27.6078 84.8097 27.244C85.1899 22.8741 81.3263 19.6436 77.1462 23.0008C75.9193 22.0366 74.4889 21.3643 72.9636 21.035C71.4383 20.7057 69.858 20.728 68.3426 21.1002C66.8859 14.7036 58.0823 13.88 53.7124 17.8073C45.4158 19.2003 42.6292 30.7254 30.6588 33.7674C30.1827 32.9928 29.6537 32.252 29.0754 31.5503C32.3059 29.2707 31.6371 22.0161 27.3659 23.2537C26.4208 23.5273 25.2125 23.7607 22.3609 21.3537C7.35177 10.5871 -14.7515 28.9542 -16.4616 44.9143C-16.7782 48.2072 -15.8916 51.1211 -14.6884 54.1612C-12.535 59.5445 -16.719 55.0218 -18.8049 58.2776C-20.7763 61.3541 -19.0584 67.5245 -15.2585 68.7914C-22.6035 80.5076 -20.3252 89.5017 -9.17837 97.4811L-16.9049 116.355C-19.3749 119.395 -27.6722 120.282 -23.6818 126.615C-22.4787 128.515 5.95817 128.515 10.7721 128.008C15.2688 127.565 18.6884 116.039 21.3489 111.099C22.1087 115.595 17.4853 127.565 24.452 128.199C41.872 128.008 68.7859 128.959 86.7096 128.389C92.7267 128.199 94.2496 125.412 89.8764 120.914C89.2427 120.154 87.9765 118.824 92.7267 111.35C98.5533 102.04 99.5666 97.7333 89.9395 87.473C95.2597 83.4203 94.1196 75.3128 90.0662 70.9429C98.6163 64.4208 101.025 52.8306 96.5266 42.4443ZM68.0891 22.9371C68.9635 22.622 69.8833 22.451 70.8126 22.4308C74.9297 22.4958 76.0061 24.774 77.2099 24.9658C78.1595 24.9008 78.92 22.3658 81.5161 23.5091C82.0718 23.8324 82.5227 24.309 82.8146 24.8818C83.1066 25.4545 83.2274 26.0993 83.1626 26.739C83.0365 27.9428 82.783 29.4625 84.1129 30.5389C92.2197 37.0623 96.8431 44.1564 96.7801 48.9059C94.0566 56.1898 87.9557 59.9917 74.9297 49.0359C69.7778 44.7017 57.2594 33.5191 62.8325 27.0588C63.5924 28.0721 64.6727 29.3799 65.6197 29.5288C66.3191 29.6386 66.7598 28.5785 66.1898 28.0715C65.4923 27.4384 64.4796 26.362 63.9096 25.7315C64.7161 24.9386 65.6082 24.2377 66.5694 23.6417C68.533 26.1767 69.4827 26.555 69.9897 26.1767C70.6228 25.5976 69.7362 24.9638 68.0891 22.9371ZM49.8488 59.6712C45.7323 58.9744 38.0688 51.6275 44.8438 40.7972C45.6036 42.4443 48.0736 42.6341 50.671 41.494C51.9568 41.7568 53.2097 42.1602 54.4072 42.6971C55.1612 42.9695 55.8639 41.8742 55.1671 41.4309C54.4417 40.9293 53.654 40.5246 52.8238 40.2271C57.067 35.0343 56.3072 43.964 64.414 44.7238C59.539 52.9639 69.3702 54.9386 74.359 50.8676C78.2856 54.0975 81.5792 55.9376 84.304 56.821C77.6538 69.8041 55.9939 71.0709 46.3037 64.7373C49.0902 64.3577 52.8895 60.5604 49.8488 59.6712ZM67.0738 51.0574C68.0241 49.981 69.2272 48.5874 70.3043 47.1938C71.2539 48.1441 72.2042 48.9677 73.0908 49.7288C71.5094 50.9944 68.7852 51.1842 67.0757 51.0574H67.0738ZM52.699 19.5805C55.8658 18.9474 55.8658 22.4308 53.3328 25.4071C52.3825 26.5472 54.0296 27.244 54.5996 26.4835C57.5123 23.0008 57.3225 20.4034 55.4862 18.5672C58.0212 16.857 61.3759 16.3507 63.9726 17.9971C63.4026 18.8837 60.6797 20.1506 61.3726 21.2907C62.1325 22.4938 64.856 19.5805 65.5528 19.327C66.1305 20.0191 66.5228 20.8467 66.6929 21.732C63.9144 22.9651 61.6837 25.1731 60.4223 27.9389C56.6056 27.8979 52.8181 28.6079 49.2755 30.0286C48.7712 28.0633 47.8173 26.242 46.4889 24.7084C48.6456 22.3671 51.1156 19.8971 52.699 19.5805ZM45.289 25.9772C46.446 27.3541 47.2691 28.9798 47.694 30.7274C40.4738 34.0209 37.307 40.5424 35.2173 47.9524C34.896 43.5106 33.6214 39.1901 31.4804 35.2852C39.7218 31.9916 41.1505 30.509 45.289 25.9804V25.9772ZM40.4758 77.7822C42.6923 86.7756 34.9657 85.1922 38.9554 100.077C29.7521 96.5769 17.835 96.5886 24.452 83.8636C26.6054 79.7465 29.522 71.6397 28.3156 65.18C30.4897 63.4035 32.2248 61.1493 33.3856 58.5929C34.1454 60.8731 37.1855 63.4679 41.3026 64.4832C39.5892 67.6513 38.7656 72.5276 40.4758 77.7854V77.7822ZM24.0724 80.5687C20.9722 79.5299 18.1987 77.6961 16.0286 75.2504C16.7254 74.6804 17.3592 73.5403 18.5636 72.0206C20.7801 72.9702 21.6667 71.9556 22.4903 70.627C24.3265 71.3238 25.2768 71.9569 26.6067 71.8308C26.1275 74.8381 25.2762 77.7741 24.0724 80.5713V80.5687ZM21.2858 22.6836C25.7825 26.737 28.1258 23.6339 29.2002 25.5976C31.4167 30.5376 23.5634 32.9426 19.8266 31.107C22.9934 31.8044 28.5034 25.8504 24.45 26.037C21.3469 26.1637 18.94 21.5403 15.8999 20.1473C17.8874 20.5034 19.7454 21.3784 21.2858 22.6836ZM11.2791 38.7705C13.8089 38.5924 14.4452 35.9839 13.8752 28.8905C14.2876 29.2487 14.7331 29.5669 15.2057 29.8408C16.4089 35.4776 14.0656 42.4443 9.50523 38.4539C10.0559 38.7212 10.6699 38.8307 11.2791 38.7705ZM0.195274 45.1678C1.46212 44.471 2.28503 42.8239 3.10858 41.1774C-0.121923 49.9173 -0.121922 45.7378 -5.37782 47.1938C-4.68167 44.5977 -1.89513 46.2442 0.195274 45.1678ZM-4.67972 48.7142C-4.40981 48.5382 -4.09951 48.4339 -3.77812 48.4112C-3.45672 48.3884 -3.13483 48.448 -2.84282 48.5842C3.11053 50.6746 3.74363 41.1092 6.65693 38.5774C7.03718 38.4474 7.31212 38.6197 8.11357 39.464C12.869 44.4723 18.2471 38.7042 17.1707 31.8012C19.9572 33.5107 24.3272 34.0807 27.6838 32.4973C28.5934 33.6475 29.3982 34.8768 30.0888 36.1705C15.7758 37.6908 22.2985 56.1209 33.5091 46.9377C34.2702 53.0204 32.369 59.5445 27.8092 63.5342C26.0354 60.8107 23.3119 63.7877 20.9686 67.271C19.7024 66.6379 18.3088 66.8277 17.8018 68.4111C16.2191 67.5876 9.12563 65.4341 10.2651 69.0442C1.39842 68.9181 -7.97522 64.1042 -9.11467 58.2139C-9.03209 57.7085 -8.82741 57.2309 -8.5184 56.8226C-8.2094 56.4142 -7.8054 56.0875 -7.34147 55.8707C-4.68167 54.5408 -6.32812 50.1708 -4.68167 48.7142H-4.67972ZM28.5073 47.6371C23.6323 48.7772 20.7808 41.6844 26.7978 38.8342C26.6691 41.7475 27.7455 45.4206 28.5054 47.6371H28.5073ZM-16.3986 61.1909C-16.7151 62.3947 -16.2686 64.294 -15.6387 65.4978C-15.0687 66.5742 -15.8916 66.5112 -16.1451 66.1946C-16.7277 65.6461 -17.1818 64.9755 -17.475 64.231C-18.2829 62.2868 -18.6781 58.0241 -15.8916 58.5311C-10.8248 59.4177 -13.2916 54.921 -14.9419 49.3473C-16.2088 44.9773 -13.9916 36.7438 -7.78477 30.0306C-7.15167 29.3338 -6.64467 30.1606 -7.40517 31.2344C-11.0783 36.3642 -12.5948 39.594 -12.8515 43.3939C-13.2948 49.6645 -9.81147 56.6312 -12.8515 59.9878C-14.1184 61.3807 -15.8916 59.354 -16.3986 61.1909ZM-17.8552 83.4859C-18.6151 77.7854 -14.6254 68.8544 -8.67137 62.8354C-5.24977 66.1946 1.90542 71.0709 10.5823 70.6913C13.3688 75.3778 16.9789 79.8745 23.3756 82.091C22.552 84.0547 21.5387 85.7648 21.0323 87.538C20.4623 86.3979 18.8789 85.8909 17.2318 85.198C17.7388 80.3841 12.1618 78.9912 8.80842 82.2847C6.91961 81.4484 5.11667 80.4303 3.42513 79.2447C4.03364 78.5887 4.45008 77.7781 4.62893 76.9014C5.19898 72.9741 -1.83142 74.1779 -2.59127 73.5442C-3.09827 73.1009 -3.09827 72.0875 -3.09827 70.7576C-3.09827 70.3143 -3.22373 69.819 -3.66833 69.871C-5.05803 70.0335 -5.31477 72.9111 -4.23837 74.6843C-3.22502 76.3314 3.21908 74.5647 2.85508 76.8377C2.74328 77.5371 0.638575 79.181 1.84172 80.258C3.63815 81.5609 5.57064 82.665 7.60527 83.5509C4.02615 88.9513 1.67021 95.0686 0.702276 101.475C-6.01157 98.6212 -16.968 90.2004 -17.8552 83.4846V83.4859ZM17.1687 94.8213C18.2486 95.0727 19.3535 95.2003 20.4623 95.2015C20.0679 96.5806 19.5375 97.917 18.8789 99.1912C17.6741 99.2487 16.4666 99.2065 15.2688 99.0651C14.8255 99.0001 14.141 99.318 14.1287 99.825C14.0968 101.093 16.5987 100.775 17.9292 100.838C16.1554 103.243 12.4185 105.525 2.41177 102.168C3.74167 93.0481 7.54222 86.1451 9.63198 83.8649C12.4822 80.8248 15.649 81.8382 15.5216 85.575C15.4566 87.9183 21.4756 87.0947 20.8419 93.4914C19.0687 93.4264 17.0719 92.6165 16.5987 93.8079C16.5624 93.9118 16.5486 94.0221 16.5583 94.1317C16.568 94.2412 16.6009 94.3475 16.6548 94.4433C16.7088 94.5392 16.7825 94.6225 16.8711 94.6876C16.9597 94.7528 17.0611 94.7984 17.1687 94.8213ZM-20.0698 122.562C-21.2099 123.195 -21.0831 125.032 -20.3863 125.919C-23.3633 126.235 -23.8066 122.879 -22.4767 121.928C-20.8933 120.852 -16.903 119.079 -15.9527 117.875C-15.4367 118.263 -14.8855 118.603 -14.3062 118.889C-15.512 120.155 -17.6648 121.232 -20.0698 122.562ZM48.1412 118.065C48.0762 119.458 48.0112 120.725 48.0112 121.738C38.1312 123.701 25.5908 122.815 22.3609 122.498C21.9807 118.952 24.6411 108.438 21.6011 108.692C19.0661 108.945 16.2808 119.712 14.0006 122.879C5.64032 123.701 -8.92617 120.979 -15.133 116.418L-7.78802 98.4951C2.47223 106.348 19.8253 110.211 22.2953 94.885C26.0321 99.1912 34.1389 99.5715 39.1426 102.36C38.9323 104.179 38.28 105.918 37.2427 107.427C37.1431 107.58 37.0956 107.762 37.1073 107.944C37.119 108.127 37.1893 108.301 37.3077 108.44C39.3025 110.5 42.7547 112.43 46.8711 114.014C47.8858 115.848 48.2023 116.925 48.1393 118.065H48.1412ZM49.1552 114.835C56.5652 117.24 65.3051 118.509 73.1584 117.37C73.2491 118.453 73.5505 119.507 74.0457 120.474C68.4089 122.817 53.3354 122.879 49.6616 122.817C49.5329 120.662 50.3558 117.24 49.1552 114.835ZM78.0958 124.65C77.2729 128.007 68.3458 126.741 62.8325 126.804C53.206 126.931 50.0392 127.437 49.7227 124.587C55.676 124.587 69.1661 124.522 75.0564 121.927C75.8163 122.625 78.2863 123.829 78.0958 124.65ZM90.0662 125.601C87.8497 127.311 82.5295 126.741 78.8563 126.677C79.9327 125.601 80.1862 123.574 78.7296 122.624C82.1299 123.223 85.614 123.159 88.9898 122.434C90.5732 124.271 90.4465 125.095 90.0662 125.602V125.601ZM91.3961 110.464C87.4695 116.67 87.2166 119.331 87.9765 120.914C83.917 121.641 79.7407 121.359 75.8163 120.091C75.2366 119.179 74.9087 118.13 74.866 117.051C84.9364 115.087 92.8534 106.283 95.3865 102.166C95.0699 104.195 94.1196 106.222 91.3961 110.465V110.464ZM90.1299 73.6033C88.6096 74.2364 88.0395 74.4899 86.8364 74.9332C85.9498 75.2498 86.3294 76.5166 87.2797 76.4529C88.5469 76.2824 89.7592 75.8278 90.8261 75.123C91.2545 76.115 91.5528 77.1582 91.7133 78.2268C90.8 78.8986 89.7685 79.3928 88.6726 79.6834C87.7867 79.9363 87.9771 81.4092 88.9261 81.3299C89.959 81.1321 90.9466 80.7456 91.8394 80.1898C92.3464 86.6501 81.8944 91.0838 74.0431 93.0468C71.1647 93.7488 68.1956 94.0051 65.2395 93.8066C59.7925 93.5531 55.676 90.8303 52.5092 88.1698C50.166 78.3548 57.9562 72.2097 65.0497 73.0333C67.3292 73.2868 69.4196 75.9466 70.5597 75.6931C78.2226 74.1734 76.1328 69.9932 78.35 69.2964C79.6162 68.9168 80.1862 70.3098 81.1996 70.9429C83.9861 72.7154 86.6466 67.9704 90.1299 73.6046V73.6033ZM89.7497 69.0429C89.8198 67.1242 89.264 65.2348 88.1663 63.6596C87.0262 62.203 86.0765 63.7246 86.3931 64.2297C87.6599 66.0029 88.293 67.65 88.0395 69.5499C85.5045 67.9035 82.783 70.4996 81.6429 69.2327C80.2493 67.713 79.1079 67.3334 78.1595 67.5863C75.8195 68.2831 75.436 71.3231 74.4227 72.5263C74.1061 72.9065 70.6228 74.6167 69.7362 73.9836C66.3796 71.6397 64.4159 71.1964 61.3128 71.6397C55.169 72.4002 49.4055 77.7835 50.5456 86.5897C49.597 85.7135 48.747 84.7364 48.0106 83.6757C47.5673 83.0426 47.005 82.7969 46.6807 83.1057C45.9988 83.7557 46.7314 85.0791 47.3138 85.8292C57.1749 98.5347 73.0908 97.8626 88.5446 88.6157C94.3075 93.936 95.068 98.3059 95.1947 99.2562C93.2206 103.316 90.3654 106.883 86.8373 109.699C83.3092 112.515 79.1972 114.508 74.801 115.533C64.921 117.873 48.9609 115.343 39.0172 107.869C43.8922 100.143 36.737 93.0494 41.4222 85.9559C45.2858 80.2561 38.3191 70.9455 43.1954 64.8654C43.4495 64.8654 43.6393 64.9304 43.8928 64.9304C53.9028 73.7333 79.6129 71.6436 86.0128 57.2669C88.2936 57.793 90.6876 57.4811 92.7575 56.3881C94.8273 55.295 96.4349 53.4938 97.2864 51.3135C97.8565 59.4177 93.4852 65.7513 89.7497 69.0442V69.0429Z" fill="#001434"/>
<path d="M11.3419 60.8743C11.6422 63.0746 17.9719 60.4603 18.3086 56.9477C18.4354 55.6178 16.9787 55.6178 16.6615 56.6311C15.7119 59.7342 11.1521 59.2272 11.3419 60.8743Z" fill="#001434"/>
<path d="M5.64152 45.484C6.14852 45.419 7.66822 44.1541 9.37837 43.5841C10.3917 43.2669 9.56037 41.5983 8.49177 42.0007C7.24429 42.5585 6.09073 43.3062 5.07212 44.2172C4.94596 44.3157 4.85647 44.4536 4.81798 44.6089C4.77949 44.7643 4.79423 44.928 4.85984 45.074C4.92545 45.22 5.03813 45.3397 5.17985 45.414C5.32157 45.4884 5.48414 45.513 5.64152 45.484Z" fill="#001434"/>
<path d="M9.69559 59.2272C14.3184 57.7075 17.0406 53.5273 14.8884 49.5376C11.1789 42.6132 0.116545 49.3101 1.46205 55.3642C2.4754 59.7342 6.40205 60.3042 9.69559 59.2272ZM6.65489 49.2172C6.83099 49.0883 7.02249 48.982 7.22495 48.9006C7.10015 51.8178 8.17525 55.4903 8.9351 57.7075C3.23525 59.8609 0.00474453 52.7675 6.65489 49.2204V49.2172Z" fill="#001434"/>
<path d="M81.4363 127.198C82.2592 127.263 80.7402 123.97 79.9803 123.21C79.2205 122.45 78.4606 123.59 78.7772 124.413C79.0937 125.299 80.6134 127.135 81.4363 127.198Z" fill="#3D9CFB"/>
<path d="M77.1953 127.199C78.208 127.134 76.3087 123.021 74.6603 121.565C73.1406 120.235 72.4445 121.818 73.5202 123.021C75.3591 125.173 76.2476 127.262 77.1953 127.199Z" fill="#3D9CFB"/>
<path d="M376.498 119.851C376.815 121.498 379.347 123.713 380.17 123.587C381.056 123.522 379.031 122.131 378.018 119.091C377.575 117.826 376.245 118.585 376.498 119.851Z" fill="#3D9CFB"/>
<path d="M386.184 119.598C385.804 121.371 384.538 122.447 384.918 122.954C385.298 123.396 387.158 121.809 387.388 120.041C387.658 117.946 386.5 118.016 386.184 119.598Z" fill="#3D9CFB"/>
<path d="M382.259 122.574C382.702 123.081 382.814 122.379 383.082 121.751C383.382 121.047 384.348 114.027 383.017 113.964C381.686 113.901 381.816 122.067 382.259 122.574Z" fill="#3D9CFB"/>
<path d="M297.744 124.662C298.567 124.727 297.048 121.434 296.288 120.674C295.528 119.914 294.768 121.054 295.085 121.877C295.402 122.763 296.921 124.599 297.744 124.662Z" fill="#3D9CFB"/>
<path d="M293.503 124.663C294.516 124.598 292.617 120.485 290.968 119.029C289.449 117.699 288.752 119.282 289.828 120.485C291.667 122.637 292.556 124.726 293.503 124.663Z" fill="#3D9CFB"/>
<path d="M138.191 121.087C138.507 122.734 141.039 124.949 141.862 124.823C142.748 124.758 140.723 123.367 139.71 120.327C139.268 119.062 137.937 119.821 138.191 121.087Z" fill="#3D9CFB"/>
<path d="M147.876 120.834C147.496 122.607 146.23 123.683 146.61 124.19C146.99 124.632 148.85 123.045 149.08 121.277C149.35 119.182 148.192 119.252 147.876 120.834Z" fill="#3D9CFB"/>
<path d="M143.951 123.81C144.394 124.317 144.506 123.615 144.774 122.987C145.074 122.283 146.04 115.263 144.709 115.2C143.378 115.137 143.508 123.303 143.951 123.81Z" fill="#3D9CFB"/>
<path d="M402.707 124.979C398.465 125.106 357.822 125.739 351.617 125.739C345.411 125.739 291.711 124.541 291.412 127.132C291.302 128.083 291.728 127.765 302.111 127.322C314.899 126.752 337.309 127.005 351.617 127.192C365.924 127.378 398.978 126.879 402.136 126.495C403.915 126.283 405.619 124.853 402.707 124.979Z" fill="#3D9CFB"/>
<path d="M294.399 126.215C290.158 126.342 249.514 126.975 243.309 126.975C237.103 126.975 183.403 125.777 183.104 128.368C182.994 129.319 183.42 129.001 193.803 128.558C206.591 127.988 229.002 128.241 243.309 128.428C257.616 128.614 290.67 128.115 293.828 127.731C295.607 127.519 297.311 126.089 294.399 126.215Z" fill="#3D9CFB"/>
<path d="M186.399 127.515C182.158 127.642 141.514 128.275 135.309 128.275C129.103 128.275 75.4028 127.077 75.1038 129.668C74.994 130.619 75.4204 130.301 85.8028 129.858C98.5909 129.288 121.002 129.541 135.309 129.728C149.616 129.914 182.67 129.415 185.828 129.031C187.607 128.819 189.311 127.389 186.399 127.515Z" fill="#3D9CFB"/>
<path d="M111.399 128.015C107.158 128.142 66.5143 128.775 60.3088 128.775C54.1032 128.775 0.402834 127.577 0.103834 130.168C-0.00601618 131.119 0.420384 130.801 10.8028 130.358C23.5909 129.788 46.0016 130.041 60.3088 130.228C74.6159 130.414 107.67 129.915 110.828 129.531C112.607 129.319 114.311 127.889 111.399 128.015Z" fill="#3D9CFB"/>
<path d="M6.43633 127.698C7.25923 127.763 5.74018 124.47 4.98033 123.71C4.22048 122.95 3.46063 124.09 3.77718 124.913C4.09373 125.799 5.61343 127.635 6.43633 127.698Z" fill="#3D9CFB"/>
<path d="M2.19534 127.699C3.20804 127.634 1.30874 123.521 -0.339659 122.065C-1.85936 120.735 -2.55551 122.318 -1.47976 123.521C0.359091 125.673 1.24764 127.762 2.19534 127.699Z" fill="#3D9CFB"/>
</svg>
