<svg width="263" height="355" viewBox="0 0 263 355" fill="none" xmlns="http://www.w3.org/2000/svg">
<path d="M88.0629 199.074C126.024 189.888 156.553 179.841 203.714 158.432C215.836 152.938 219.963 146.235 217.257 131.925C213.365 111.516 203.39 85.1598 197.163 67.7525C192.91 55.8906 183.396 51.1914 172.535 53.216C169.096 53.8518 83.9162 82.1579 80.661 83.5485C80.661 83.5485 104.861 97.108 97.5593 118.086C90.2579 139.064 48.0109 142.824 48.0109 142.824C58.4791 171.846 64.1315 204.854 88.0629 199.074ZM179.224 142.872C175.919 140.424 181.668 137.901 177.808 135.059C177.362 134.628 177.093 134.046 177.054 133.426C177.015 132.807 177.21 132.196 177.598 131.712C177.987 131.229 178.543 130.908 179.156 130.814C179.769 130.719 180.396 130.857 180.912 131.2C185.455 133.456 185.424 144.773 179.224 142.872ZM189.943 144.795C189.392 144.442 189.004 143.885 188.861 143.247C188.717 142.608 188.832 141.939 189.179 141.384C189.965 140.242 190.499 138.945 190.745 137.581C190.992 136.216 190.944 134.814 190.606 133.469C190.268 132.124 189.647 130.866 188.785 129.78C187.923 128.694 186.839 127.803 185.606 127.168C185.277 127.001 184.989 126.763 184.763 126.47C184.537 126.178 184.379 125.839 184.301 125.478C184.223 125.117 184.226 124.743 184.31 124.383C184.394 124.023 184.558 123.687 184.789 123.398C189.233 120.3 194.087 128.004 195.277 131.836C196.468 135.668 195.693 146.599 189.969 144.763L189.943 144.795ZM207.309 128.881C209.103 132.618 206.885 150.458 200.157 148.264C199.615 147.894 199.242 147.326 199.117 146.683C198.993 146.039 199.127 145.372 199.492 144.828C201.028 142.739 202.094 140.343 202.616 137.803C203.138 135.264 203.104 132.641 202.517 130.116C201.764 127.493 200.475 125.055 198.73 122.956C196.985 120.858 194.824 119.145 192.382 117.927C192.055 117.758 191.771 117.519 191.548 117.227C191.325 116.935 191.17 116.597 191.093 116.237C191.016 115.878 191.02 115.506 191.104 115.149C191.189 114.791 191.351 114.457 191.58 114.169C197.422 110.613 206.481 124.073 207.309 128.881ZM188.818 95.6994C192.519 96.804 192.078 91.648 195.533 93.1884C195.824 93.3331 196.083 93.5337 196.296 93.7788C196.509 94.0239 196.672 94.3086 196.774 94.6167C196.877 94.9247 196.918 95.25 196.894 95.5738C196.871 95.8977 196.784 96.2137 196.638 96.5038C195.95 98.0257 194.765 99.2683 193.277 100.027C191.789 100.786 190.088 101.016 188.452 100.68C186.42 100.549 186.385 100.626 186.003 101.559C184.624 105.012 182.987 107.046 180.941 107.852C177.384 109.29 174.534 106.866 171.445 106.016C170.431 105.965 169.964 107.463 169.466 110.28C168.967 113.097 163.579 112.745 164.654 109.047C165.73 105.349 165.967 104.563 167.281 102.93C169.5 98.8598 176.21 103.044 179.018 103.325C182.493 99.9222 181.811 94.8362 188.818 95.6994ZM114.229 94.938C114.156 94.6214 114.145 94.2934 114.199 93.9728C114.253 93.6522 114.369 93.3454 114.542 93.07C114.714 92.7945 114.939 92.5559 115.205 92.3678C115.47 92.1797 115.769 92.0459 116.086 91.9741C132.428 88.0545 138.054 84.7991 155.421 80.2275C156.054 80.0581 156.729 80.1471 157.296 80.4749C157.863 80.8027 158.277 81.3425 158.447 81.9754C158.616 82.6084 158.527 83.2827 158.199 83.85C157.871 84.4174 157.332 84.8313 156.699 85.0007C147.737 87.4189 141.755 89.4119 136.493 91.1662C133.501 91.3442 115.817 100.145 114.229 94.938ZM130.646 127.321C132.068 117.914 135.58 114.171 143.613 118.022C144.168 118.02 145.236 111.414 147.245 111.211C150.058 109.781 152.765 112.645 155.188 112.879C155.742 112.318 156.108 111.599 156.237 110.822C156.421 110.193 156.847 109.663 157.421 109.349C157.996 109.034 158.672 108.961 159.3 109.145C159.929 109.329 160.459 109.755 160.773 110.329C161.088 110.904 161.161 111.58 160.977 112.208C159.634 118.566 153.782 118.791 149.624 116.026C147.826 124.392 143.569 123.552 137.749 121.376C137.672 121.472 136.443 122.278 135.551 128.075C135.415 128.693 135.05 129.235 134.528 129.592C134.007 129.949 133.369 130.094 132.745 129.998C132.12 129.902 131.556 129.572 131.166 129.074C130.776 128.577 130.59 127.95 130.646 127.321ZM91.1763 134.185C93.3525 130.66 98.6456 136.474 100.363 136.537C100.869 130.957 105.447 128.151 109.982 131.957C110.718 132.55 112.292 133.446 112.771 133.277C113.55 126.308 115.473 121.524 122.945 127.614C123.448 128.033 123.768 128.631 123.835 129.282C123.903 129.933 123.714 130.585 123.308 131.098C121.775 133.003 119.504 131.335 118.267 130.314C118.122 139.086 112.12 140.087 105.848 135.226C105.243 137.061 104.529 141.129 102.31 141.427C102.256 142.676 88.6896 138.62 91.1763 134.185ZM83.9764 167.431C85.6768 165.317 87.8901 168.205 89.3342 168.312C93.3119 152.679 100.816 164.598 104.047 161.499C108.381 149.16 108.862 149.547 119.902 155.791C122.197 148.906 127.668 144.892 133.327 149.366C133.599 149.541 133.833 149.768 134.017 150.034C134.2 150.3 134.329 150.6 134.396 150.916C134.463 151.233 134.466 151.559 134.406 151.877C134.346 152.194 134.224 152.497 134.046 152.767C132.652 155.549 128.637 151.95 127.792 152.378C126.946 152.806 125.546 155.53 124.445 157.783C121.34 164.069 115.339 158.872 111.189 156.589C108.041 166.797 105.926 169.394 96.1253 165.018C93.9524 167.359 94.3384 172.945 89.9723 173.257C86.8738 173.666 81.3483 170.698 83.9764 167.431Z" fill="#3673FF"/>
<rect x="63.9463" y="198.904" width="92.8158" height="135.675" transform="rotate(-108.052 63.9463 198.904)" fill="#EEEEEE"/>
<rect x="157.181" y="169.154" width="44.0483" height="60.1317" transform="rotate(-108.052 157.181 169.154)" fill="#3673FF"/>
<path d="M163.125 55.8635C125.113 64.8325 94.5263 74.7051 47.244 95.8447C35.0908 101.27 30.9259 107.95 33.5496 122.275C37.3256 142.705 47.1499 169.118 53.2781 186.56C57.4631 198.446 66.9499 203.2 77.822 201.237C81.265 200.621 166.605 172.801 169.868 171.429C169.868 171.429 145.746 157.732 153.167 136.796C160.588 115.86 202.856 112.341 202.856 112.341C192.553 83.2602 187.089 50.2203 163.125 55.8635ZM71.6444 111.544C74.9362 114.011 69.1728 116.502 73.0166 119.365C73.4602 119.799 73.7257 120.383 73.7609 121.002C73.7961 121.622 73.5985 122.232 73.2068 122.713C72.8151 123.194 72.2577 123.512 71.6441 123.603C71.0304 123.694 70.4047 123.553 69.8899 123.207C65.3608 120.925 65.4562 109.608 71.6444 111.544ZM60.9371 109.56C61.4856 109.917 61.8713 110.475 62.0107 111.115C62.1501 111.754 62.032 112.422 61.6819 112.975C60.8889 114.113 60.3474 115.407 60.0935 116.77C59.8396 118.134 59.8791 119.535 60.2095 120.882C60.5398 122.229 61.1533 123.491 62.0092 124.582C62.865 125.673 63.9436 126.57 65.173 127.211C65.5016 127.38 65.7884 127.62 66.0126 127.914C66.2367 128.208 66.3926 128.548 66.4689 128.91C66.5451 129.271 66.5399 129.645 66.4535 130.004C66.3671 130.364 66.2017 130.699 65.9694 130.986C61.5075 134.059 56.6969 126.328 55.5288 122.489C54.3606 118.65 55.1974 107.724 60.9112 109.592L60.9371 109.56ZM43.4804 125.376C41.708 121.628 44.0281 103.8 50.7435 106.033C51.2826 106.406 51.6528 106.976 51.7736 107.621C51.8944 108.265 51.7561 108.931 51.3886 109.473C49.8406 111.553 48.7613 113.943 48.2246 116.48C47.688 119.016 47.7067 121.639 48.2796 124.167C49.0171 126.795 50.2927 129.24 52.0254 131.349C53.7582 133.457 55.9103 135.182 58.3452 136.414C58.6705 136.585 58.9539 136.826 59.175 137.119C59.3962 137.412 59.5495 137.751 59.6242 138.111C59.6988 138.471 59.6928 138.842 59.6066 139.2C59.5204 139.557 59.3561 139.89 59.1256 140.176C53.2637 143.699 44.2808 130.187 43.4804 125.376ZM61.7817 158.662C58.087 157.536 58.4994 162.694 55.0523 161.134C54.7625 160.988 54.5044 160.786 54.2928 160.54C54.0813 160.293 53.9204 160.008 53.8195 159.699C53.7187 159.39 53.6797 159.065 53.7049 158.741C53.7301 158.417 53.819 158.102 53.9665 157.813C54.6631 156.295 55.8555 155.059 57.3476 154.308C58.8397 153.558 60.5427 153.338 62.1767 153.683C64.2073 153.826 64.2433 153.749 64.6299 152.818C66.0295 149.373 67.6772 147.348 69.7285 146.554C73.2938 145.136 76.1299 147.577 79.2137 148.444C80.2275 148.501 80.7023 147.006 81.2172 144.192C81.732 141.378 87.1181 141.76 86.0213 145.452C84.9245 149.144 84.6836 149.928 83.3603 151.554C81.1177 155.611 74.4319 151.389 71.6258 151.092C68.1307 154.475 68.7844 159.565 61.7817 158.662ZM136.365 159.848C136.437 160.165 136.445 160.494 136.39 160.814C136.334 161.134 136.216 161.44 136.042 161.715C135.868 161.989 135.641 162.227 135.375 162.413C135.109 162.6 134.809 162.732 134.491 162.802C118.127 166.628 112.483 169.851 95.0898 174.324C94.4559 174.49 93.7821 174.397 93.2166 174.066C92.6511 173.735 92.2403 173.193 92.0746 172.559C91.9088 171.925 92.0016 171.251 92.3327 170.685C92.6637 170.12 93.2058 169.709 93.8397 169.543C102.815 167.176 108.808 165.217 114.081 163.493C117.073 163.332 134.807 154.632 136.365 159.848ZM120.134 127.373C118.658 136.771 115.125 140.494 107.114 136.597C106.559 136.596 105.453 143.195 103.442 143.387C100.622 144.801 97.9306 141.922 95.5093 141.674C94.9527 142.232 94.5823 142.949 94.4488 143.725C94.2614 144.353 93.8323 144.88 93.256 145.191C92.6797 145.503 92.0034 145.572 91.3759 145.385C90.7483 145.197 90.221 144.768 89.9098 144.192C89.5986 143.616 89.5291 142.939 89.7166 142.312C91.0958 135.961 96.9489 135.77 101.092 138.559C102.937 130.203 107.189 131.067 112.997 133.276C113.074 133.181 114.307 132.382 115.232 126.59C115.372 125.974 115.741 125.434 116.264 125.08C116.788 124.725 117.426 124.584 118.05 124.683C118.674 124.783 119.237 125.117 119.624 125.616C120.011 126.116 120.193 126.744 120.134 127.373ZM159.642 120.734C157.445 124.246 152.186 118.402 150.469 118.329C149.931 123.907 145.337 126.686 140.824 122.854C140.091 122.257 138.522 121.352 138.042 121.518C137.223 128.483 135.273 133.255 127.836 127.123C127.335 126.702 127.019 126.101 126.955 125.45C126.891 124.799 127.084 124.148 127.493 123.637C129.037 121.741 131.299 123.422 132.529 124.45C132.725 115.679 138.732 114.712 144.976 119.609C145.591 117.778 146.329 113.714 148.549 113.428C148.611 112.18 162.154 116.313 159.642 120.734ZM167.031 87.5293C165.319 89.6334 163.122 86.7324 161.678 86.6176C157.612 102.228 150.176 90.2665 146.927 93.3463C142.522 105.661 142.044 105.271 131.039 98.9645C128.706 105.836 123.212 109.818 117.578 105.312C117.307 105.136 117.074 104.907 116.892 104.64C116.71 104.373 116.583 104.073 116.518 103.756C116.453 103.439 116.451 103.113 116.513 102.796C116.575 102.478 116.699 102.176 116.878 101.907C118.288 99.1331 122.283 102.755 123.131 102.332C123.978 101.909 125.394 99.1929 126.508 96.9458C129.649 90.6778 135.62 95.9088 139.757 98.2162C142.963 88.0263 145.093 85.4411 154.869 89.8727C157.055 87.5448 156.701 81.9567 161.068 81.6693C164.169 81.2781 169.678 84.2776 167.031 87.5293Z" fill="#3673FF"/>
<g filter="url(#filter0_g_16_545)">
<line x1="151.526" y1="154.672" x2="178.704" y2="143.555" stroke="#EEEEEE" stroke-width="3.99327" stroke-linecap="round"/>
</g>
<g filter="url(#filter1_d_16_545)">
<path d="M174.388 299.083C136.428 289.89 105.9 279.837 58.7424 258.418C46.6212 252.922 42.4956 246.218 45.2035 231.908C49.0994 211.5 59.0788 185.145 65.3095 167.739C69.5643 155.878 79.0788 151.18 89.9394 153.207C93.3787 153.843 178.554 182.166 181.809 183.557C181.809 183.557 157.607 197.112 164.905 218.092C172.203 239.072 214.45 242.839 214.45 242.839C203.976 271.86 198.318 304.867 174.388 299.083ZM83.2349 242.863C86.5411 240.415 80.7924 237.891 84.653 235.05C85.0991 234.619 85.3681 234.037 85.4069 233.417C85.4457 232.798 85.2517 232.187 84.8629 231.703C84.474 231.22 83.9185 230.899 83.3054 230.804C82.6922 230.709 82.0657 230.847 81.5489 231.19C77.0064 233.445 77.0353 244.763 83.2349 242.863ZM72.516 244.784C73.0665 244.43 73.4556 243.874 73.5987 243.236C73.7419 242.597 73.6277 241.928 73.2809 241.373C72.4945 240.231 71.9606 238.934 71.7148 237.569C71.4689 236.204 71.5166 234.802 71.8549 233.457C72.1931 232.112 72.814 230.855 73.6763 229.769C74.5386 228.682 75.6224 227.792 76.8556 227.158C77.1852 226.991 77.4734 226.752 77.6992 226.46C77.9251 226.167 78.083 225.828 78.1614 225.467C78.2398 225.106 78.2367 224.732 78.1524 224.372C78.0681 224.012 77.9047 223.676 77.6741 223.387C73.2303 220.288 68.3743 227.991 67.1836 231.823C65.993 235.656 66.7655 246.586 72.4902 244.752L72.516 244.784ZM55.1524 228.866C53.358 232.603 55.5733 250.444 62.3018 248.251C62.8431 247.881 63.2166 247.313 63.3412 246.669C63.4658 246.026 63.3313 245.359 62.967 244.814C61.4313 242.726 60.366 240.329 59.8443 237.789C59.3225 235.25 59.3567 232.627 59.9445 230.102C60.6973 227.479 61.9873 225.041 63.7324 222.943C65.4776 220.845 67.6398 219.133 70.0819 217.915C70.4082 217.746 70.693 217.507 70.9158 217.215C71.1387 216.923 71.2941 216.585 71.3708 216.225C71.4475 215.866 71.4437 215.494 71.3596 215.137C71.2755 214.779 71.1132 214.445 70.8844 214.157C65.0432 210.599 55.9811 224.058 55.1524 228.866ZM73.6491 195.688C69.9478 196.791 70.3905 191.635 66.9343 193.175C66.6436 193.32 66.3843 193.52 66.1713 193.766C65.9583 194.011 65.7958 194.295 65.6931 194.603C65.5904 194.911 65.5495 195.237 65.5728 195.56C65.5961 195.884 65.6832 196.2 65.8289 196.491C66.5167 198.013 67.7018 199.255 69.1894 200.015C70.6771 200.774 72.3788 201.004 74.0148 200.668C76.0463 200.538 76.0818 200.615 76.4629 201.548C77.8423 205.001 79.478 207.035 81.5247 207.842C85.0816 209.281 87.9321 206.857 91.0209 206.008C92.035 205.957 92.5011 207.455 92.9993 210.272C93.4976 213.089 98.8859 212.738 97.8108 209.04C96.7358 205.342 96.4994 204.556 95.1857 202.923C92.967 198.852 86.2564 203.035 83.4486 203.315C79.9734 199.912 80.657 194.826 73.6491 195.688ZM148.239 194.94C148.312 194.624 148.323 194.296 148.269 193.975C148.216 193.655 148.099 193.348 147.927 193.072C147.754 192.797 147.529 192.558 147.264 192.37C146.999 192.182 146.699 192.048 146.382 191.976C130.041 188.053 124.416 184.797 107.049 180.222C106.416 180.052 105.742 180.141 105.174 180.469C104.607 180.797 104.193 181.336 104.023 181.969C103.854 182.602 103.943 183.277 104.27 183.844C104.598 184.411 105.138 184.825 105.771 184.995C114.732 187.415 120.714 189.409 125.976 191.164C128.968 191.343 146.65 200.148 148.239 194.94ZM131.817 227.32C130.396 217.913 126.885 214.17 118.851 218.019C118.296 218.017 117.229 211.411 115.22 211.208C112.407 209.777 109.699 212.64 107.277 212.874C106.723 212.313 106.357 211.594 106.228 210.816C106.044 210.188 105.618 209.658 105.044 209.343C104.469 209.029 103.794 208.955 103.165 209.139C102.536 209.323 102.006 209.749 101.692 210.323C101.377 210.898 101.304 211.573 101.488 212.202C102.829 218.56 108.681 218.786 112.841 216.022C114.637 224.388 118.894 223.55 124.714 221.375C124.792 221.471 126.02 222.276 126.911 228.074C127.047 228.691 127.413 229.234 127.934 229.591C128.455 229.948 129.093 230.093 129.717 229.997C130.342 229.901 130.906 229.571 131.296 229.074C131.686 228.577 131.872 227.95 131.817 227.32ZM171.285 234.192C169.11 230.667 163.816 236.48 162.099 236.543C161.593 230.962 157.015 228.155 152.48 231.961C151.743 232.553 150.17 233.45 149.691 233.281C148.912 226.311 146.99 221.527 139.518 227.615C139.014 228.034 138.695 228.632 138.627 229.283C138.559 229.934 138.748 230.586 139.154 231.099C140.687 233.005 142.958 231.337 144.195 230.316C144.339 239.088 150.341 240.09 156.613 235.231C157.218 237.065 157.931 241.133 160.15 241.433C160.204 242.681 173.771 238.628 171.285 234.192ZM178.48 267.44C176.78 265.326 174.566 268.214 173.122 268.32C169.147 252.686 161.64 264.604 158.41 261.505C154.077 249.164 153.597 249.551 142.555 255.793C140.262 248.907 134.792 244.893 129.132 249.365C128.86 249.54 128.625 249.767 128.442 250.034C128.258 250.3 128.129 250.6 128.062 250.916C127.995 251.232 127.992 251.558 128.052 251.876C128.112 252.194 128.234 252.496 128.412 252.766C129.805 255.549 133.821 251.95 134.667 252.378C135.512 252.806 136.912 255.531 138.012 257.785C141.116 264.071 147.118 258.875 151.269 256.592C154.414 266.801 156.53 269.399 166.331 265.025C168.504 267.366 168.117 272.952 172.483 273.265C175.581 273.674 181.107 270.707 178.48 267.44Z" fill="#FAFAFA"/>
<rect width="92.8164" height="135.677" transform="matrix(0.310035 -0.950725 -0.950719 -0.310053 198.505 298.917)" fill="#3673FF"/>
<rect width="44.0486" height="60.1326" transform="matrix(0.310035 -0.950725 -0.950719 -0.310053 105.274 269.149)" fill="#FAFAFA"/>
<path d="M99.3493 155.856C137.361 164.832 167.945 174.711 215.225 195.86C227.377 201.287 231.541 207.968 228.915 222.293C225.135 242.723 215.306 269.134 209.175 286.576C204.988 298.461 195.5 303.213 184.628 301.248C181.185 300.631 95.8496 272.795 92.5867 271.422C92.5867 271.422 116.711 257.729 109.294 236.791C101.876 215.853 59.6088 212.327 59.6088 212.327C69.9163 183.247 75.3861 150.208 99.3493 155.856ZM190.821 211.555C187.529 214.022 193.292 216.513 189.448 219.376C189.004 219.809 188.738 220.393 188.703 221.013C188.668 221.632 188.865 222.243 189.257 222.724C189.649 223.205 190.206 223.523 190.82 223.614C191.433 223.706 192.059 223.564 192.574 223.218C197.103 220.937 197.01 209.62 190.821 211.555ZM201.529 209.573C200.981 209.93 200.595 210.488 200.455 211.127C200.316 211.767 200.434 212.435 200.784 212.988C201.576 214.126 202.118 215.42 202.371 216.783C202.625 218.147 202.585 219.549 202.255 220.896C201.924 222.242 201.31 223.503 200.454 224.595C199.598 225.686 198.52 226.582 197.29 227.224C196.961 227.393 196.675 227.633 196.45 227.926C196.226 228.22 196.07 228.56 195.994 228.922C195.918 229.283 195.923 229.657 196.009 230.016C196.095 230.376 196.261 230.711 196.493 230.999C200.954 234.072 205.766 226.342 206.935 222.503C208.104 218.664 207.269 207.738 201.555 209.605L201.529 209.573ZM218.983 225.392C220.756 221.644 218.439 203.816 211.723 206.048C211.184 206.421 210.814 206.991 210.693 207.635C210.572 208.279 210.71 208.945 211.078 209.488C212.625 211.568 213.704 213.958 214.24 216.495C214.777 219.032 214.757 221.654 214.184 224.183C213.446 226.81 212.17 229.255 210.437 231.363C208.704 233.471 206.551 235.196 204.116 236.428C203.791 236.599 203.508 236.839 203.286 237.133C203.065 237.426 202.912 237.765 202.837 238.124C202.762 238.484 202.768 238.856 202.855 239.213C202.941 239.57 203.105 239.904 203.335 240.19C209.197 243.714 218.182 230.204 218.983 225.392ZM200.676 258.675C204.371 257.55 203.958 262.708 207.405 261.149C207.695 261.003 207.953 260.801 208.165 260.554C208.376 260.308 208.537 260.022 208.638 259.714C208.739 259.405 208.778 259.08 208.753 258.756C208.728 258.432 208.639 258.117 208.491 257.827C207.795 256.309 206.603 255.073 205.111 254.322C203.619 253.572 201.916 253.351 200.282 253.696C198.251 253.838 198.215 253.762 197.829 252.831C196.43 249.385 194.782 247.36 192.731 246.565C189.166 245.147 186.33 247.587 183.246 248.454C182.232 248.51 181.757 247.015 181.243 244.201C180.729 241.387 175.342 241.768 176.439 245.46C177.535 249.152 177.775 249.937 179.099 251.563C181.34 255.621 188.027 251.4 190.833 251.104C194.328 254.487 193.673 259.577 200.676 258.675ZM126.092 259.847C126.02 260.164 126.012 260.493 126.067 260.813C126.122 261.133 126.24 261.439 126.414 261.714C126.589 261.988 126.815 262.226 127.081 262.412C127.347 262.599 127.648 262.731 127.965 262.801C144.329 266.631 149.972 269.855 167.365 274.331C167.999 274.497 168.673 274.404 169.238 274.073C169.804 273.742 170.215 273.2 170.381 272.566C170.546 271.932 170.454 271.259 170.123 270.693C169.792 270.127 169.25 269.717 168.616 269.551C159.641 267.182 153.648 265.222 148.376 263.497C145.383 263.335 127.651 254.631 126.092 259.847ZM142.329 227.374C143.803 236.774 147.336 240.497 155.347 236.601C155.903 236.6 157.007 243.2 159.018 243.392C161.838 244.807 164.53 241.928 166.951 241.68C167.508 242.239 167.878 242.955 168.011 243.732C168.199 244.36 168.628 244.887 169.204 245.199C169.78 245.51 170.456 245.579 171.084 245.392C171.711 245.205 172.239 244.776 172.55 244.2C172.861 243.623 172.931 242.947 172.744 242.319C171.366 235.969 165.512 235.776 161.369 238.564C159.525 230.208 155.273 231.071 149.465 233.28C149.387 233.184 148.154 232.385 147.23 226.593C147.091 225.976 146.722 225.436 146.199 225.082C145.676 224.728 145.037 224.586 144.413 224.686C143.789 224.785 143.226 225.118 142.839 225.618C142.452 226.117 142.27 226.745 142.329 227.374ZM102.822 220.728C105.017 224.241 110.278 218.397 111.995 218.325C112.532 223.903 117.126 226.683 121.639 222.852C122.373 222.255 123.941 221.35 124.421 221.516C125.239 228.481 127.188 233.254 134.626 227.123C135.127 226.702 135.443 226.102 135.508 225.45C135.572 224.799 135.379 224.149 134.97 223.638C133.426 221.741 131.165 223.422 129.934 224.45C129.74 215.679 123.732 214.71 117.488 219.606C116.873 217.775 116.136 213.711 113.916 213.424C113.854 212.176 100.31 216.306 102.822 220.728ZM95.4379 187.522C97.15 189.626 99.3473 186.725 100.791 186.611C104.855 202.222 112.293 190.262 115.541 193.342C119.944 205.658 120.422 205.269 131.428 198.964C133.761 205.836 139.253 209.819 144.888 205.314C145.159 205.138 145.392 204.909 145.574 204.642C145.756 204.375 145.883 204.075 145.949 203.758C146.014 203.441 146.016 203.115 145.954 202.798C145.892 202.48 145.768 202.178 145.589 201.909C144.179 199.135 140.184 202.756 139.336 202.333C138.488 201.91 137.073 199.193 135.96 196.946C132.82 190.677 126.848 195.907 122.71 198.214C119.506 188.023 117.376 185.437 107.6 189.867C105.414 187.539 105.769 181.951 101.402 181.663C98.3008 181.271 92.7918 184.269 95.4379 187.522Z" fill="#FAFAFA"/>
<g filter="url(#filter2_g_16_545)">
<line x1="1.99664" y1="-1.99664" x2="31.3609" y2="-1.99664" transform="matrix(-0.925488 -0.378777 -0.37876 0.925495 112.023 257.273)" stroke="#3673FF" stroke-width="3.99327" stroke-linecap="round"/>
</g>
</g>
<defs>
<filter id="filter0_g_16_545" x="147.133" y="139.162" width="35.9642" height="19.9034" filterUnits="userSpaceOnUse" color-interpolation-filters="sRGB">
<feFlood flood-opacity="0" result="BackgroundImageFix"/>
<feBlend mode="normal" in="SourceGraphic" in2="BackgroundImageFix" result="shape"/>
<feTurbulence type="fractalNoise" baseFrequency="0.018781598657369614 0.018781598657369614" numOctaves="3" seed="7805" />
<feDisplacementMap in="shape" scale="4.791923999786377" xChannelSelector="R" yChannelSelector="G" result="displacedImage" width="100%" height="100%" />
<feMerge result="effect1_texture_16_545">
<feMergeNode in="displacedImage"/>
</feMerge>
</filter>
<filter id="filter1_d_16_545" x="28.0075" y="132.35" width="218.06" height="181.728" filterUnits="userSpaceOnUse" color-interpolation-filters="sRGB">
<feFlood flood-opacity="0" result="BackgroundImageFix"/>
<feColorMatrix in="SourceAlpha" type="matrix" values="0 0 0 0 0 0 0 0 0 0 0 0 0 0 0 0 0 0 127 0" result="hardAlpha"/>
<feOffset dy="-4"/>
<feGaussianBlur stdDeviation="8.2"/>
<feComposite in2="hardAlpha" operator="out"/>
<feColorMatrix type="matrix" values="0 0 0 0 0.0733722 0 0 0 0 0.0733722 0 0 0 0 0.0733722 0 0 0 0.2 0"/>
<feBlend mode="normal" in2="BackgroundImageFix" result="effect1_dropShadow_16_545"/>
<feBlend mode="normal" in="SourceGraphic" in2="effect1_dropShadow_16_545" result="shape"/>
</filter>
<filter id="filter2_g_16_545" x="79.362" y="239.153" width="35.9626" height="19.9087" filterUnits="userSpaceOnUse" color-interpolation-filters="sRGB">
<feFlood flood-opacity="0" result="BackgroundImageFix"/>
<feBlend mode="normal" in="SourceGraphic" in2="BackgroundImageFix" result="shape"/>
<feTurbulence type="fractalNoise" baseFrequency="0.018781598657369614 0.018781598657369614" numOctaves="3" seed="7805" />
<feDisplacementMap in="shape" scale="4.791923999786377" xChannelSelector="R" yChannelSelector="G" result="displacedImage" width="100%" height="100%" />
<feMerge result="effect1_texture_16_545">
<feMergeNode in="displacedImage"/>
</feMerge>
</filter>
</defs>
</svg>
