<svg width="23" height="23" viewBox="0 0 23 23" fill="none" xmlns="http://www.w3.org/2000/svg">
<g opacity="0.3">
<path d="M17.1757 19.8808C17.1757 17.9578 16.4118 16.1136 15.0521 14.7538C13.6923 13.394 11.848 12.6301 9.92503 12.6301C8.00202 12.6301 6.15777 13.394 4.798 14.7538C3.43823 16.1136 2.67432 17.9578 2.67432 19.8808" stroke="currentColor" stroke-width="1.81268" stroke-linecap="round" stroke-linejoin="round"/>
<path d="M9.92501 12.6303C12.4278 12.6303 14.4567 10.6014 14.4567 8.09859C14.4567 5.5958 12.4278 3.56689 9.92501 3.56689C7.42222 3.56689 5.39331 5.5958 5.39331 8.09859C5.39331 10.6014 7.42222 12.6303 9.92501 12.6303Z" stroke="currentColor" stroke-width="1.81268" stroke-linecap="round" stroke-linejoin="round"/>
<path d="M20.8013 18.9743C20.8013 15.9199 18.9886 13.083 17.1759 11.7235C17.7718 11.2765 18.2482 10.6895 18.5631 10.0144C18.878 9.33937 19.0217 8.5971 18.9814 7.85329C18.941 7.10949 18.718 6.3871 18.3319 5.75004C17.9459 5.11299 17.4087 4.58092 16.7681 4.20093" stroke="currentColor" stroke-width="1.81268" stroke-linecap="round" stroke-linejoin="round"/>
</g>
</svg>
