<svg width="23" height="23" viewBox="0 0 23 23" fill="none" xmlns="http://www.w3.org/2000/svg">
<g opacity="0.3">
<path d="M17.2281 18.9744C17.2281 17.5322 16.6552 16.149 15.6354 15.1291C14.6155 14.1093 13.2323 13.5364 11.7901 13.5364C10.3478 13.5364 8.96464 14.1093 7.94481 15.1291C6.92498 16.149 6.35205 17.5322 6.35205 18.9744" stroke="currentColor" stroke-width="1.81268" stroke-linecap="round" stroke-linejoin="round"/>
<path d="M11.7902 13.5364C13.7924 13.5364 15.4155 11.9132 15.4155 9.911C15.4155 7.90877 13.7924 6.28564 11.7902 6.28564C9.78792 6.28564 8.16479 7.90877 8.16479 9.911C8.16479 11.9132 9.78792 13.5364 11.7902 13.5364Z" stroke="currentColor" stroke-width="1.81268" stroke-linecap="round" stroke-linejoin="round"/>
<path d="M11.7902 20.7872C16.7958 20.7872 20.8536 16.7294 20.8536 11.7238C20.8536 6.71822 16.7958 2.6604 11.7902 2.6604C6.78462 2.6604 2.72681 6.71822 2.72681 11.7238C2.72681 16.7294 6.78462 20.7872 11.7902 20.7872Z" stroke="currentColor" stroke-width="1.81268" stroke-linecap="round" stroke-linejoin="round"/>
</g>
</svg>
