<svg width="23" height="23" viewBox="0 0 23 23" fill="none" xmlns="http://www.w3.org/2000/svg">
<g opacity="0.3">
<path d="M19.7895 3.56689H3.47543C2.97487 3.56689 2.56909 3.97268 2.56909 4.47323V7.19225C2.56909 7.69281 2.97487 8.09859 3.47543 8.09859H19.7895C20.2901 8.09859 20.6959 7.69281 20.6959 7.19225V4.47323C20.6959 3.97268 20.2901 3.56689 19.7895 3.56689Z" stroke="currentColor" stroke-width="1.81268" stroke-linecap="round" stroke-linejoin="round"/>
<path d="M4.38184 8.09839V18.0681C4.38184 18.5489 4.57281 19.0099 4.91276 19.3499C5.2527 19.6898 5.71376 19.8808 6.19451 19.8808H17.0706C17.5513 19.8808 18.0124 19.6898 18.3523 19.3499C18.6923 19.0099 18.8833 18.5489 18.8833 18.0681V8.09839" stroke="currentColor" stroke-width="1.81268" stroke-linecap="round" stroke-linejoin="round"/>
<path d="M9.82007 11.7236H13.4454" stroke="currentColor" stroke-width="1.81268" stroke-linecap="round" stroke-linejoin="round"/>
</g>
</svg>
