<svg width="17" height="17" viewBox="0 0 17 17" fill="none" xmlns="http://www.w3.org/2000/svg">
<g opacity="0.4">
<path d="M14.3704 8.50008V5.83341C14.3704 4.36065 13.1764 3.16675 11.7037 3.16675H5.03703C3.56427 3.16675 2.37036 4.36065 2.37036 5.83341V11.8334C2.37036 13.3061 3.56427 14.5001 5.03703 14.5001H8.37036" stroke="#333333" stroke-width="1.33333" stroke-linecap="round"/>
<path d="M5.70361 2.5V4.5" stroke="#333333" stroke-width="1.33333" stroke-linecap="round"/>
<path d="M11.7038 7.16675H5.03711" stroke="#333333" stroke-width="1.33333" stroke-linecap="round"/>
<path d="M11.0371 2.5V4.5" stroke="#333333" stroke-width="1.33333" stroke-linecap="round"/>
<path d="M14.3704 12.5C14.3704 13.6046 13.475 14.5 12.3704 14.5C11.2658 14.5 10.3704 13.6046 10.3704 12.5C10.3704 11.3954 11.2658 10.5 12.3704 10.5C13.475 10.5 14.3704 11.3954 14.3704 12.5Z" stroke="#333333" stroke-width="1.33333"/>
</g>
</svg>
