<svg width="17" height="17" viewBox="0 0 17 17" fill="none" xmlns="http://www.w3.org/2000/svg">
<g opacity="0.4" clip-path="url(#clip0_99_3370)">
<path d="M8.33325 9.19455V1.55566L13.8888 4.33344L8.33325 7.11122" stroke="#333333" stroke-width="1.38889" stroke-linecap="round" stroke-linejoin="round"/>
<path d="M14.2784 7.26516C14.648 8.40415 14.6825 9.62532 14.378 10.7834C14.0735 11.9415 13.4427 12.9877 12.5608 13.7976C11.6788 14.6075 10.5827 15.147 9.40288 15.3518C8.22311 15.5567 7.0093 15.4184 5.90588 14.9533C4.80247 14.4882 3.85588 13.7159 3.17875 12.7283C2.50162 11.7407 2.12245 10.5794 2.08634 9.38247C2.05023 8.18558 2.35871 7.00351 2.97508 5.97689C3.59145 4.95027 4.48976 4.12233 5.56314 3.59155" stroke="#333333" stroke-width="1.38889" stroke-linecap="round" stroke-linejoin="round"/>
<path d="M5.5567 7.10913C5.20871 7.57234 4.98217 8.11526 4.8977 8.68843C4.81323 9.2616 4.87352 9.84679 5.07309 10.3907C5.27265 10.9346 5.60514 11.4199 6.04026 11.8024C6.47538 12.185 6.9993 12.4525 7.56429 12.5808C8.12928 12.709 8.71737 12.6938 9.27499 12.5366C9.83261 12.3794 10.342 12.0852 10.7568 11.6807C11.1717 11.2763 11.4787 10.7744 11.6499 10.221C11.8211 9.66748 11.8512 9.07996 11.7373 8.51191" stroke="#333333" stroke-width="1.38889" stroke-linecap="round" stroke-linejoin="round"/>
</g>
<defs>
<clipPath id="clip0_99_3370">
<rect width="16.6667" height="16.6667" fill="white" transform="translate(0 0.166748)"/>
</clipPath>
</defs>
</svg>
